<?xml version="1.0" encoding="UTF-8" standalone="no"?>
<!-- Created with Inkscape (http://www.inkscape.org/) -->

<svg
   xmlns:dc="http://purl.org/dc/elements/1.1/"
   xmlns:cc="http://creativecommons.org/ns#"
   xmlns:rdf="http://www.w3.org/1999/02/22-rdf-syntax-ns#"
   xmlns:svg="http://www.w3.org/2000/svg"
   xmlns="http://www.w3.org/2000/svg"
   version="1.1"
   width="72.815002"
   height="72.856247"
   id="svg3011">
  <defs
     id="defs3013" />
  <metadata
     id="metadata3016">
    <rdf:RDF>
      <cc:Work
         rdf:about="">
        <dc:format>image/svg+xml</dc:format>
        <dc:type
           rdf:resource="http://purl.org/dc/dcmitype/StillImage" />
        <dc:title></dc:title>
      </cc:Work>
    </rdf:RDF>
  </metadata>
  <g
     transform="translate(-317.01962,-498.73595)"
     id="layer1">
    <g
       transform="matrix(1.25,0,0,-1.25,389.36087,537.90345)"
       id="g15134"
       style="fill:#49a942;fill-opacity:1">
      <path
         d="m 36.9375,0 c -0.03,0.0275 -0.06,0.06625 -0.09375,0.0625 -0.1475,0.0425 -0.33625,0.115 -0.375,0.3125 -0.02875,0.12125 0.02,1.9025 -1.78125,2 C 32.885,2.47375 32.715,0.64375 32.65625,0.5 32.61625,0.4025 32.47,0.27 32.25,0.21875 l -0.03125,0 C 31.9775,0.24625 31.73625,0.28 31.5,0.3125 31.4675,0.35 31.46625,0.4 31.4375,0.40625 c -0.15,0.06375 -0.33875,0.1725 -0.34375,0.375 -0.015,0.1225 0.3325,1.85 -1.4375,2.21875 C 27.89375,3.36375 27.445,1.59875 27.375,1.46875 27.31625,1.375 27.1225,1.27125 26.90625,1.25 26.89375,1.255 26.88,1.25 26.875,1.25 26.64,1.31125 26.4175,1.36875 26.1875,1.4375 26.16875,1.48 26.13,1.51875 26.09375,1.53125 c -0.1275,0.085 -0.275,0.235 -0.25,0.4375 0.01,0.1225 0.5975,1.78125 -1.09375,2.40625 -1.6925,0.6275 -2.4075,-1.0425 -2.5,-1.15625 -0.07375,-0.085 -0.275,-0.1675 -0.5,-0.15625 -0.22125,0.10125 -0.43625,0.2125 -0.65625,0.3125 -0.0175,0.045 -0.0275,0.08 -0.0625,0.09375 -0.11375,0.105 -0.2725,0.27125 -0.21875,0.46875 0.035,0.12125 0.86625,1.69125 -0.71875,2.5625 -1.58,0.8725 -2.5125,-0.71375 -2.625,-0.8125 -0.08375,-0.0725 -0.29,-0.105 -0.5,-0.0625 -0.21,0.1375 -0.44875,0.26875 -0.65625,0.40625 -0.01375,0.03875 -0.0063,0.0775 -0.03125,0.09375 -0.1,0.12125 -0.205,0.3125 -0.125,0.5 C 16.205,6.73625 17.24375,8.15375 15.8125,9.25 14.375,10.34875 13.22,8.955 13.09375,8.875 c -0.08125,-0.06 -0.29,-0.075 -0.5,0 C 12.40625,9.04 12.22,9.2075 12.03125,9.375 12.02875,9.4175 12,9.44625 11.96875,9.46875 11.8975,9.5975 11.83,9.79375 11.9375,9.96875 11.99625,10.0725 13.2575,11.32625 12,12.625 10.75,13.92375 9.385,12.7175 9.25,12.65625 9.15,12.61 8.9425,12.6125 8.75,12.71875 c -0.16625,0.1875 -0.32,0.4 -0.46875,0.59375 0,0.04 -0.0025,0.0725 -0.03125,0.09375 -0.05625,0.145 -0.13125,0.3425 0,0.5 0.07625,0.09 1.52,1.1525 0.46875,2.625 -1.045,1.4725 -2.5825,0.48 -2.71875,0.4375 -0.1075,-0.0275 -0.32125,0.01375 -0.5,0.15625 -0.13375,0.2075 -0.255,0.41625 -0.375,0.625 0.005,0.0475 0.01375,0.065 0,0.09375 C 5.0875,17.995 5.06,18.24 5.21875,18.375 c 0.085,0.07875 1.65375,0.88625 0.84375,2.5 -0.81875,1.61125 -2.47625,0.865 -2.625,0.84375 -0.1025,-0.01375 -0.31,0.0575 -0.46875,0.21875 -0.095,0.2175 -0.19,0.4675 -0.28125,0.6875 0.02,0.04125 0.01,0.06125 0,0.09375 -0.015,0.15 0.01875,0.3875 0.1875,0.5 0.1,0.06625 1.78,0.62875 1.21875,2.34375 -0.5725,1.7125 -2.3225,1.2175 -2.46875,1.21875 -0.105,0.005 -0.31,0.13 -0.4375,0.3125 -0.06375,0.24 -0.12625,0.45 -0.1875,0.6875 0.02875,0.03875 0.03875,0.0925 0.03125,0.125 0.015,0.1525 0.0575,0.3875 0.25,0.46875 0.1075,0.0475 1.83875,0.34375 1.53125,2.125 -0.3,1.77875 -2.09625,1.56625 -2.25,1.59375 -0.1025,0.015 -0.2825,0.12375 -0.375,0.3125 -0.0175,0.13625 -0.01125,0.295 -0.03125,0.4375 -0.01,0.11125 -0.02375,0.1975 -0.03125,0.3125 0.02625,0.0325 0.03125,0.0925 0.03125,0.125 0.03125,0.15 0.115,0.34875 0.3125,0.40625 0.115,0.03375 1.87875,0.1 1.84375,1.90625 -0.03625,1.80625 -1.86375,1.82375 -2,1.875 C 0.205,37.50125 0.07125,37.66125 0,37.875 c 0.005,0.24625 0.015,0.505 0.03125,0.75 0.035,0.03125 0.0625,0.0575 0.0625,0.09375 0.04875,0.1425 0.1775,0.315 0.375,0.34375 0.1225,0.01375 1.86125,-0.195 2.09375,1.59375 0.23375,1.7925 -1.56,2.12375 -1.6875,2.1875 -0.0975,0.05 -0.21125,0.215 -0.25,0.4375 0.0025,0.0025 0,0.02125 0,0.03125 C 0.67375,43.54 0.70125,43.76875 0.75,44 c 0.035,0.02875 0.09125,0.055 0.09375,0.09375 0.0825,0.135 0.20125,0.31625 0.40625,0.3125 0.12375,-0.0037 1.84625,-0.48375 2.34375,1.25 0.50125,1.7325 -1.255,2.3225 -1.375,2.40625 -0.09,0.0675 -0.18,0.27375 -0.1875,0.5 0.0775,0.225 0.16625,0.4275 0.25,0.65625 0.03875,0.02 0.08375,0.0575 0.09375,0.09375 0.0925,0.12 0.26625,0.28625 0.46875,0.25 0.12,-0.02 1.71625,-0.73375 2.46875,0.90625 0.75125,1.63625 -0.86375,2.46 -0.96875,2.5625 -0.08625,0.0725 -0.145,0.285 -0.125,0.5 0.11875,0.225 0.25,0.44 0.375,0.65625 C 4.6325,54.2 4.67,54.215 4.6875,54.25 4.8025,54.35 4.96,54.47 5.15625,54.40625 5.27,54.37 6.76625,53.4275 7.75,54.9375 c 0.99125,1.51 -0.49875,2.5675 -0.59375,2.6875 -0.065,0.085 -0.0875,0.29125 -0.03125,0.5 0.14625,0.205 0.31,0.39375 0.46875,0.59375 0.03875,0.0087 0.0825,0.01125 0.09375,0.03125 0.1375,0.08875 0.32,0.21625 0.5,0.125 0.105,-0.0575 1.4525,-1.21625 2.65625,0.125 1.19875,1.35 -0.10875,2.62125 -0.1875,2.75 -0.05125,0.09375 -0.055,0.29625 0.03125,0.5 0.1775,0.175 0.3825,0.35875 0.5625,0.53125 0.04125,0 0.0725,-0.0225 0.09375,0 0.145,0.07 0.3375,0.1475 0.5,0.03125 0.1075,-0.07125 1.27125,-1.40125 2.65625,-0.25 1.38875,1.15 0.27,2.5825 0.21875,2.71875 -0.04375,0.10125 -0.0025,0.31 0.125,0.5 0.1975,0.145 0.39,0.2925 0.59375,0.4375 0.04375,-0.0088 0.09625,0.0088 0.125,0.03125 0.145,0.0425 0.3525,0.08 0.5,-0.0625 0.0875,-0.08375 1.0175,-1.59 2.5625,-0.65625 1.54375,0.93125 0.6575,2.51375 0.625,2.65625 -0.01875,0.1075 0.0675,0.33375 0.21875,0.5 0.21,0.11 0.43875,0.2375 0.65625,0.34375 0.03625,-0.01625 0.05625,-0.02125 0.09375,0 0.15125,0.02 0.3775,0.0062 0.5,-0.15625 0.07875,-0.10125 0.77,-1.7225 2.4375,-1.03125 1.66,0.69125 1.03375,2.41625 1.03125,2.5625 -0.01125,0.11375 0.10625,0.29375 0.28125,0.4375 0.23,0.08375 0.45625,0.175 0.6875,0.25 C 25.195,71.075 25.22125,71.05 25.25,71.0625 c 0.15875,0 0.37375,-0.03625 0.46875,-0.21875 0.06875,-0.105 0.52875,-1.81125 2.28125,-1.375 1.75125,0.43375 1.3575,2.22875 1.375,2.375 0.005,0.1125 0.15125,0.29125 0.34375,0.40625 0.24,0.0475 0.47,0.08375 0.71875,0.125 0.0375,-0.0225 0.09125,-0.03625 0.125,-0.03125 0.15125,-0.025 0.3425,-0.0925 0.40625,-0.28125 0.04875,-0.12 0.26375,-1.89 2.0625,-1.71875 1.795,0.1675 1.68375,2.01625 1.71875,2.15625 0.02375,0.105 0.17125,0.25 0.375,0.34375 0.24875,0.0025 0.49375,-0.0037 0.75,0 0.0225,-0.025 0.0625,-0.03125 0.09375,-0.03125 0.15,-0.04625 0.33625,-0.145 0.375,-0.34375 0.02375,-0.11625 -0.04875,-1.8975 1.75,-2 1.8025,-0.0975 1.975,1.735 2.03125,1.875 0.04,0.1025 0.2175,0.22375 0.4375,0.28125 l 0.03125,0 c 0.24125,-0.03 0.45125,-0.06375 0.6875,-0.09375 0.03125,-0.03125 0.09125,-0.06 0.125,-0.0625 0.14,-0.06875 0.305,-0.205 0.3125,-0.40625 0.01,-0.12 -0.3325,-1.8575 1.4375,-2.21875 1.765,-0.37625 2.20875,1.4075 2.28125,1.53125 0.05375,0.095 0.245,0.2 0.46875,0.21875 0.0075,-0.005 0.02875,0 0.03125,0 0.23375,-0.0625 0.465,-0.12375 0.6875,-0.1875 0.02625,-0.045 0.065,-0.08 0.09375,-0.09375 0.135,-0.0875 0.3,-0.23875 0.28125,-0.4375 -0.015,-0.125 -0.63125,-1.7775 1.0625,-2.40625 1.69625,-0.63 2.4075,1.045 2.5,1.15625 0.07125,0.0875 0.2775,0.16875 0.5,0.15625 0.22375,-0.105 0.44125,-0.20625 0.65625,-0.3125 0.0175,-0.0375 0.02875,-0.0475 0.0625,-0.0625 0.11,-0.10625 0.27875,-0.305 0.21875,-0.5 -0.0225,-0.12 -0.86375,-1.65625 0.71875,-2.53125 1.57875,-0.86875 2.515,0.68125 2.625,0.78125 0.08375,0.0725 0.2925,0.13375 0.5,0.09375 0.2175,-0.135 0.44625,-0.2925 0.65625,-0.4375 0.0075,-0.0375 0.01125,-0.04375 0.03125,-0.0625 0.1025,-0.12 0.2075,-0.31125 0.125,-0.5 C 56.6125,66.13625 55.56875,64.69 57,63.59375 58.4325,62.495 59.595,63.915 59.71875,64 c 0.08625,0.05875 0.2975,0.07 0.5,0 0.19,-0.16875 0.37125,-0.325 0.5625,-0.5 0,-0.0375 0.005,-0.075 0.03125,-0.09375 0.07875,-0.13375 0.165,-0.3575 0.0625,-0.53125 -0.06625,-0.10375 -1.3175,-1.33375 -0.0625,-2.625 1.2525,-1.3075 2.61625,-0.0925 2.75,-0.03125 0.10125,0.04625 0.31125,0.015 0.5,-0.09375 0.16625,-0.18625 0.35,-0.37 0.5,-0.5625 0,-0.04625 0,-0.0975 0.03125,-0.125 0.05375,-0.13875 0.10125,-0.34125 -0.03125,-0.5 -0.085,-0.09 -1.5225,-1.12 -0.46875,-2.59375 1.0375,-1.4725 2.5825,-0.4775 2.71875,-0.4375 0.11,0.03 0.32625,-0.015 0.5,-0.15625 0.12875,-0.21 0.24625,-0.41375 0.375,-0.625 -0.01375,-0.04125 -0.01375,-0.095 0,-0.125 C 67.725,54.8525 67.745,54.63375 67.59375,54.5 67.50625,54.4175 65.9375,53.585 66.75,51.96875 67.57125,50.36 69.22875,51.14 69.375,51.15625 c 0.11,0.0175 0.315,-0.08875 0.46875,-0.25 0.0975,-0.21875 0.185,-0.43375 0.28125,-0.65625 -0.015,-0.045 -0.0175,-0.09 0,-0.125 0.0125,-0.15375 -0.01375,-0.3625 -0.1875,-0.46875 -0.1,-0.06625 -1.785,-0.66125 -1.21875,-2.375 0.56375,-1.71375 2.3225,-1.2175 2.46875,-1.21875 0.1175,-0.0012 0.315,-0.10125 0.4375,-0.28125 C 71.69125,45.5425 71.75125,45.305 71.8125,45.0625 71.79125,45.02875 71.76875,44.9975 71.78125,44.96875 71.76875,44.815 71.71625,44.5825 71.53125,44.5 71.42625,44.44625 69.6975,44.12 70,42.34375 c 0.3025,-1.77875 2.10875,-1.5375 2.25,-1.5625 0.1075,-0.01875 0.2675,-0.15 0.375,-0.34375 0.01,-0.14125 0.01375,-0.27125 0.03125,-0.40625 0.01,-0.11375 0.02125,-0.2325 0.03125,-0.34375 -0.02875,-0.03625 -0.03625,-0.0625 -0.03125,-0.09375 -0.03125,-0.15 -0.12,-0.38 -0.3125,-0.4375 -0.1125,-0.0275 -1.8825,-0.07125 -1.84375,-1.875 0.0325,-1.8025 1.85875,-1.835 2,-1.875 0.1025,-0.04 0.23875,-0.225 0.3125,-0.4375 C 72.8,34.7225 72.795,34.49375 72.78125,34.25 c -0.035,-0.0275 -0.0625,-0.05875 -0.0625,-0.09375 -0.05375,-0.14375 -0.1725,-0.3525 -0.375,-0.375 -0.1225,-0.02 -1.85875,0.195 -2.09375,-1.59375 -0.23125,-1.78875 1.555,-2.09 1.6875,-2.15625 0.095,-0.04875 0.21375,-0.24625 0.25,-0.46875 -0.04625,-0.23625 -0.08125,-0.4875 -0.125,-0.71875 -0.0425,-0.0275 -0.08625,-0.0575 -0.09375,-0.09375 -0.075,-0.13125 -0.20625,-0.28875 -0.40625,-0.28125 -0.1225,0 -1.84125,0.455 -2.34375,-1.28125 -0.49375,-1.73625 1.26,-2.32375 1.375,-2.40625 0.0925,-0.06 0.18,-0.2475 0.1875,-0.46875 -0.0075,0 -0.02375,0.005 -0.03125,0 -0.08,-0.225 -0.1675,-0.465 -0.25,-0.6875 -0.04125,-0.02 -0.05125,-0.05875 -0.0625,-0.09375 -0.1,-0.12 -0.2675,-0.2525 -0.46875,-0.21875 C 69.845,23.33125 68.25,24.045 67.5,22.40625 c -0.75125,-1.64 0.85875,-2.46375 0.96875,-2.5625 0.07875,-0.075 0.12875,-0.28 0.09375,-0.5 -0.10875,-0.22 -0.21625,-0.4425 -0.34375,-0.65625 C 68.1825,18.67125 68.145,18.6525 68.125,18.625 68.01,18.52 67.85125,18.375 67.65625,18.4375 c -0.115,0.0375 -1.63875,1.00875 -2.625,-0.5 -0.98125,-1.51125 0.5025,-2.57 0.59375,-2.6875 0.0625,-0.085 0.09,-0.29375 0.03125,-0.5 C 65.505,14.54375 65.375,14.32625 65.21875,14.125 65.1825,14.12125 65.14125,14.12125 65.125,14.09375 65,14.01 64.80125,13.9075 64.625,14 c -0.11,0.05875 -1.45,1.22 -2.65625,-0.125 -1.19875,-1.34625 0.11375,-2.62125 0.1875,-2.75 0.05125,-0.09375 0.0525,-0.3 -0.03125,-0.5 -0.185,-0.1775 -0.3825,-0.355 -0.5625,-0.53125 -0.03875,0 -0.0725,-0.005 -0.09375,-0.03125 -0.1425,-0.06625 -0.3375,-0.155 -0.5,-0.03125 -0.1025,0.0675 -1.27375,1.435 -2.65625,0.28125 C 56.91625,9.16125 58.04125,7.70125 58.09375,7.5625 58.125,7.46 58.08625,7.25 57.96875,7.0625 57.76625,6.91625 57.58,6.76625 57.375,6.625 57.33375,6.6325 57.27625,6.65125 57.25,6.625 57.1075,6.57875 56.895,6.54125 56.75,6.6875 56.6625,6.77125 55.735,8.2775 54.1875,7.34375 52.64125,6.415 53.5275,4.8 53.5625,4.65625 c 0.02375,-0.105 -0.0675,-0.305 -0.21875,-0.46875 0,-0.005 0,-0.03125 0,-0.03125 C 53.12875,4.045 52.905,3.95 52.6875,3.84375 c -0.04125,0.01125 -0.06125,0.0125 -0.09375,0 -0.15375,-0.025 -0.37375,-0.0375 -0.5,0.125 C 52.0225,4.07125 51.32375,5.6875 49.65625,5 47.99125,4.30875 48.61625,2.61375 48.625,2.46875 48.625,2.35625 48.54125,2.145 48.375,2 48.13625,1.92 47.89,1.85875 47.65625,1.78125 c -0.04125,0.0175 -0.065,0.0125 -0.09375,0 C 47.40375,1.77625 47.155,1.8225 47.0625,2 47.00875,2.10875 46.5725,3.81125 44.8125,3.375 43.06125,2.93875 43.41875,1.145 43.40625,1 43.39625,0.8925 43.28,0.74125 43.09375,0.625 42.8525,0.57875 42.62875,0.53875 42.375,0.5 42.3425,0.52 42.28375,0.54 42.25,0.53125 42.095,0.55625 41.885,0.615 41.8125,0.8125 41.77375,0.9225 41.5825,2.6725 39.78125,2.5 37.98375,2.3325 38.0925,0.5125 38.0625,0.375 38.04,0.27125 37.8875,0.12 37.6875,0.03125 37.43875,0.02625 37.18875,0.0025 36.9375,0 z m -0.53125,9.78125 c 14.714397,0 26.65625,11.941853 26.65625,26.65625 0,14.714397 -11.941853,26.625 -26.65625,26.625 C 21.691853,63.0625 9.75,51.151897 9.75,36.4375 9.75,21.723103 21.691853,9.78125 36.40625,9.78125 z"
         transform="matrix(0.8,0,0,-0.8,-57.873,31.334)"
         id="path15136"
         style="fill:#49a942;fill-opacity:1;fill-rule:nonzero;stroke:none" />
    </g>
  </g>
</svg>
