<?xml version="1.0" encoding="UTF-8" standalone="no"?>
<!-- Created with Inkscape (http://www.inkscape.org/) -->

<svg
   xmlns:dc="http://purl.org/dc/elements/1.1/"
   xmlns:cc="http://creativecommons.org/ns#"
   xmlns:rdf="http://www.w3.org/1999/02/22-rdf-syntax-ns#"
   xmlns:svg="http://www.w3.org/2000/svg"
   xmlns="http://www.w3.org/2000/svg"
   xmlns:sodipodi="http://sodipodi.sourceforge.net/DTD/sodipodi-0.dtd"
   xmlns:inkscape="http://www.inkscape.org/namespaces/inkscape"
   width="351.46475"
   height="72.963196"
   id="svg21457"
   version="1.1"
   inkscape:version="0.48.2 r9819"
   sodipodi:docname="hubway-logo.svg">
  <defs
     id="defs21459">
    <clipPath
       id="clipPath15082"
       clipPathUnits="userSpaceOnUse">
      <path
         inkscape:connector-curvature="0"
         id="path15084"
         d="m 0,623.412 804.168,0 L 804.168,0 0,0 0,623.412 z" />
    </clipPath>
  </defs>
  <sodipodi:namedview
     id="base"
     pagecolor="#ffffff"
     bordercolor="#666666"
     borderopacity="1.0"
     inkscape:pageopacity="0.0"
     inkscape:pageshadow="2"
     inkscape:zoom="19.535415"
     inkscape:cx="207.83827"
     inkscape:cy="28.32345"
     inkscape:document-units="px"
     inkscape:current-layer="layer1"
     showgrid="false"
     inkscape:window-width="1015"
     inkscape:window-height="670"
     inkscape:window-x="180"
     inkscape:window-y="236"
     inkscape:window-maximized="0"
     fit-margin-top="0"
     fit-margin-left="0"
     fit-margin-right="0"
     fit-margin-bottom="0" />
  <metadata
     id="metadata21462">
    <rdf:RDF>
      <cc:Work
         rdf:about="">
        <dc:format>image/svg+xml</dc:format>
        <dc:type
           rdf:resource="http://purl.org/dc/dcmitype/StillImage" />
        <dc:title></dc:title>
      </cc:Work>
    </rdf:RDF>
  </metadata>
  <g
     inkscape:label="Layer 1"
     inkscape:groupmode="layer"
     id="layer1"
     transform="translate(0,-979.39903)">
    <g
       id="g15080"
       clip-path="url(#clipPath15082)"
       transform="matrix(1.25,0,0,-1.25,-326.87275,1729.6119)"
       style="fill:#49a942;fill-opacity:1">
      <g
         id="g15086"
         transform="translate(321.1348,562.041)"
         style="fill:#49a942;fill-opacity:1">
        <path
           inkscape:connector-curvature="0"
           d="m 0,0 c -5.619,-1.961 -13.074,-0.063 -12.814,6.801 l 0,18.509 -8.893,0 0,-18.442 c 0,-10.008 7.65,-15.37 17.002,-15.37 4.252,0 8.5,0.653 13.736,2.487 l 0,31.325 L 0,25.31 0,0 z"
           style="fill:#49a942;fill-opacity:1;fill-rule:nonzero;stroke:none"
           id="path15088" />
      </g>
      <g
         id="g15090"
         transform="translate(348.2773,588.0698)"
         style="fill:#49a942;fill-opacity:1">
        <path
           inkscape:connector-curvature="0"
           d="m 0,0 c -1.504,0 -3.207,-0.26 -4.842,-0.653 l 0,12.557 -8.959,0 0,-44.21 c 5.168,-1.834 9.549,-2.157 13.344,-2.157 11.18,0 17.398,8.434 17.398,17.001 C 16.941,-8.174 9.68,0 0,0 m -0.457,-26.619 c -1.375,0.069 -2.943,0.134 -4.385,0.39 l 0,17.399 c 1.442,0.528 2.553,0.722 3.797,0.722 4.967,0 9.022,-3.99 9.086,-9.354 0.068,-4.25 -2.941,-9.157 -8.498,-9.157"
           style="fill:#49a942;fill-opacity:1;fill-rule:nonzero;stroke:none"
           id="path15092" />
      </g>
      <g
         id="g15094"
         transform="translate(406.1289,587.5474)"
         style="fill:#49a942;fill-opacity:1">
        <path
           inkscape:connector-curvature="0"
           d="m 0,0 -3.527,-16.609 -1.241,-6.608 -1.638,6.413 -4.709,16.608 -10.071,0 -4.136,-16.635 -1.78,-8.371 -1.601,8.593 L -32.24,0 l -9.221,0 8.238,-33.355 11.838,0 3.924,15.958 1.342,6.805 1.344,-6.805 3.859,-15.958 11.834,0 L 9.422,0 0,0 z"
           style="fill:#49a942;fill-opacity:1;fill-rule:nonzero;stroke:none"
           id="path15096" />
      </g>
      <g
         id="g15098"
         transform="translate(429.4102,588.3311)"
         style="fill:#49a942;fill-opacity:1">
        <path
           inkscape:connector-curvature="0"
           d="m 0,0 c -4.387,0 -8.83,-1.374 -12.754,-4.512 l 3.012,-5.491 c 2.679,1.503 5.621,2.552 8.896,2.552 3.33,0 6.602,-1.509 6.602,-5.692 -8.697,2.811 -20.733,-0.655 -20.733,-10.529 0,-5.69 4.643,-11.185 13.34,-11.185 2.616,0 5.887,1.047 7.979,3.665 l 1.181,-2.947 7.125,0 0,19.883 C 14.648,-4.576 7.586,0 0,0 M 5.822,-25.176 C 4.383,-26.353 1.961,-27.531 0,-27.531 c -4.318,0 -6.738,2.157 -6.67,4.445 0.131,4.775 8.238,5.036 12.492,3.141 l 0,-5.231 z"
           style="fill:#49a942;fill-opacity:1;fill-rule:nonzero;stroke:none"
           id="path15100" />
      </g>
      <g
         id="g15102"
         transform="translate(468.8398,587.3511)"
         style="fill:#49a942;fill-opacity:1">
        <path
           inkscape:connector-curvature="0"
           d="m 0,0 -5.887,-16.609 -1.488,-4.674 -1.91,4.605 L -16.09,0 -25.766,0 c 3.991,-9.813 8.897,-21.188 12.952,-31.066 -1.444,-6.144 -1.702,-7.454 -7.651,-7.389 l 0,-6.737 c 5.426,-1.045 12.684,-0.064 15.168,6.343 L 9.684,0 0,0 z"
           style="fill:#49a942;fill-opacity:1;fill-rule:nonzero;stroke:none"
           id="path15104" />
      </g>
      <g
         id="g15106"
         transform="translate(542.291,568.7935)"
         style="fill:#49a942;fill-opacity:1">
        <path
           inkscape:connector-curvature="0"
           d="m 0,0 c -0.09,0.022 -1.508,0.073 -1.477,1.516 0.026,1.442 1.487,1.473 1.6,1.505 0.082,0.032 0.197,0.16 0.256,0.33 C 0.369,3.548 0.359,3.745 0.348,3.94 0.32,3.962 0.299,3.988 0.299,4.016 0.256,4.131 0.17,4.288 0.008,4.306 -0.09,4.322 -1.494,4.157 -1.682,5.588 c -0.185,1.431 1.254,1.676 1.36,1.729 0.076,0.039 0.172,0.184 0.201,0.362 l 0,0.014 c -0.037,0.189 -0.076,0.375 -0.111,0.56 -0.034,0.022 -0.059,0.045 -0.065,0.074 -0.06,0.105 -0.17,0.246 -0.33,0.24 -0.098,0 -1.465,-0.371 -1.867,1.018 -0.395,1.389 0.994,1.847 1.086,1.913 0.074,0.048 0.144,0.209 0.15,0.386 -0.006,0 0,0.005 -0.006,0.009 -0.064,0.18 -0.131,0.365 -0.197,0.543 -0.033,0.016 -0.055,0.033 -0.064,0.061 -0.08,0.096 -0.207,0.219 -0.368,0.192 -0.099,-0.015 -1.392,-0.587 -1.992,0.724 -0.601,1.312 0.701,1.975 0.789,2.054 0.063,0.06 0.106,0.225 0.078,0.401 -0.087,0.176 -0.181,0.351 -0.283,0.522 -0.029,0.013 -0.054,0.026 -0.07,0.048 -0.092,0.084 -0.233,0.186 -0.389,0.136 -0.092,-0.03 -1.287,-0.788 -2.076,0.419 -0.785,1.209 0.4,2.056 0.473,2.15 0.05,0.068 0.074,0.234 0.027,0.399 -0.121,0.165 -0.242,0.325 -0.367,0.486 -0.029,0.003 -0.057,0.014 -0.07,0.036 -0.1,0.067 -0.266,0.148 -0.407,0.074 -0.088,-0.047 -1.156,-0.971 -2.121,0.105 -0.959,1.077 0.094,2.094 0.153,2.197 0.041,0.075 0.037,0.24 -0.03,0.4 -0.148,0.142 -0.293,0.281 -0.437,0.422 -0.031,0 -0.061,0.004 -0.078,0.025 -0.114,0.053 -0.284,0.112 -0.414,0.013 -0.082,-0.054 -1.002,-1.132 -2.108,-0.209 -1.117,0.921 -0.223,2.081 -0.181,2.192 0.025,0.082 0,0.25 -0.094,0.4 -0.162,0.117 -0.323,0.231 -0.487,0.344 -0.033,-0.006 -0.066,-0.006 -0.087,0.015 -0.114,0.037 -0.293,0.066 -0.409,-0.051 -0.07,-0.067 -0.814,-1.268 -2.052,-0.521 -1.237,0.743 -0.536,2.028 -0.508,2.143 0.019,0.084 -0.037,0.249 -0.158,0.38 0,0.004 -0.002,0.007 -0.002,0.007 -0.172,0.089 -0.344,0.179 -0.518,0.264 -0.033,-0.009 -0.068,-0.015 -0.094,-0.005 -0.123,0.02 -0.299,0.025 -0.4,-0.105 -0.057,-0.082 -0.619,-1.375 -1.953,-0.825 -1.332,0.553 -0.824,1.924 -0.817,2.04 0,0.09 -0.076,0.244 -0.209,0.36 -0.191,0.064 -0.375,0.125 -0.562,0.187 -0.033,-0.014 -0.063,-0.028 -0.086,-0.018 -0.127,0.004 -0.307,-0.024 -0.381,-0.166 -0.043,-0.087 -0.4,-1.454 -1.808,-1.105 -1.401,0.349 -1.106,1.781 -1.116,1.897 -0.008,0.086 -0.107,0.223 -0.256,0.316 -0.193,0.037 -0.388,0.072 -0.591,0.103 -0.026,-0.016 -0.053,-0.031 -0.08,-0.024 -0.124,-0.02 -0.29,-0.067 -0.348,-0.225 -0.031,-0.088 -0.184,-1.495 -1.625,-1.357 -1.438,0.134 -1.359,1.597 -1.383,1.707 -0.018,0.083 -0.141,0.206 -0.301,0.277 -0.199,0.004 -0.398,0.011 -0.599,0.013 -0.024,-0.022 -0.049,-0.042 -0.076,-0.039 -0.118,-0.034 -0.28,-0.111 -0.311,-0.269 -0.023,-0.097 0.035,-1.512 -1.406,-1.59 -1.442,-0.079 -1.576,1.372 -1.623,1.487 -0.032,0.078 -0.17,0.185 -0.346,0.226 l -0.006,0 c -0.193,-0.022 -0.385,-0.045 -0.574,-0.071 -0.026,-0.03 -0.049,-0.052 -0.072,-0.057 -0.12,-0.051 -0.264,-0.151 -0.268,-0.313 -0.012,-0.098 0.26,-1.487 -1.156,-1.782 -1.41,-0.291 -1.768,1.125 -1.824,1.229 -0.047,0.075 -0.202,0.159 -0.375,0.176 -0.01,-0.004 -0.014,-0.004 -0.018,-0.004 -0.188,-0.049 -0.367,-0.098 -0.551,-0.153 -0.015,-0.034 -0.037,-0.059 -0.066,-0.069 -0.102,-0.068 -0.237,-0.186 -0.217,-0.348 0.008,-0.098 0.48,-1.433 -0.873,-1.933 -1.354,-0.502 -1.912,0.849 -1.986,0.94 -0.059,0.068 -0.221,0.127 -0.401,0.118 -0.177,-0.081 -0.359,-0.163 -0.535,-0.243 -0.014,-0.036 -0.027,-0.061 -0.055,-0.072 -0.091,-0.084 -0.207,-0.221 -0.164,-0.379 0.028,-0.097 0.692,-1.345 -0.576,-2.042 -1.264,-0.698 -2.015,0.555 -2.105,0.634 -0.067,0.058 -0.235,0.092 -0.403,0.058 -0.168,-0.11 -0.338,-0.22 -0.504,-0.33 -0.011,-0.031 -0.021,-0.057 -0.041,-0.07 -0.08,-0.097 -0.169,-0.25 -0.105,-0.4 0.039,-0.089 0.883,-1.227 -0.262,-2.104 -1.15,-0.879 -2.084,0.248 -2.185,0.312 -0.065,0.048 -0.233,0.058 -0.401,-0.002 -0.15,-0.132 -0.3,-0.266 -0.451,-0.4 -0.002,-0.034 -0.008,-0.061 -0.033,-0.079 -0.057,-0.103 -0.127,-0.271 -0.041,-0.411 0.047,-0.083 1.055,-1.08 0.049,-2.119 -1,-1.039 -2.09,-0.065 -2.198,-0.016 -0.08,0.037 -0.248,0.019 -0.402,-0.066 -0.133,-0.15 -0.258,-0.302 -0.377,-0.457 0,-0.032 0,-0.063 -0.023,-0.08 -0.045,-0.116 -0.092,-0.291 0.013,-0.417 0.061,-0.072 1.211,-0.908 0.37,-2.086 -0.836,-1.178 -2.063,-0.376 -2.172,-0.342 -0.086,0.022 -0.254,-0.019 -0.397,-0.133 -0.107,-0.166 -0.207,-0.33 -0.303,-0.497 0.004,-0.038 0.006,-0.07 -0.005,-0.093 -0.03,-0.121 -0.047,-0.298 0.08,-0.406 0.068,-0.063 1.322,-0.719 0.674,-2.01 -0.655,-1.289 -1.985,-0.678 -2.104,-0.661 -0.082,0.011 -0.244,-0.058 -0.371,-0.187 0,-0.003 -0.002,-0.003 -0.004,-0.011 -0.076,-0.174 -0.15,-0.352 -0.223,-0.528 0.016,-0.033 0.02,-0.067 0.012,-0.093 -0.012,-0.12 0,-0.3 0.135,-0.39 0.08,-0.053 1.42,-0.514 0.971,-1.886 -0.458,-1.37 -1.862,-0.967 -1.979,-0.968 -0.084,-0.004 -0.234,-0.092 -0.336,-0.238 -0.051,-0.192 -0.101,-0.382 -0.15,-0.572 0.023,-0.031 0.033,-0.061 0.027,-0.087 0.012,-0.122 0.041,-0.3 0.195,-0.365 0.086,-0.038 1.479,-0.296 1.233,-1.721 -0.24,-1.423 -1.688,-1.232 -1.811,-1.254 -0.082,-0.012 -0.211,-0.119 -0.285,-0.27 -0.014,-0.109 -0.027,-0.22 -0.043,-0.334 -0.008,-0.089 -0.017,-0.178 -0.023,-0.27 0.021,-0.026 0.035,-0.052 0.035,-0.078 0.025,-0.12 0.086,-0.288 0.244,-0.334 0.092,-0.027 1.506,-0.07 1.478,-1.515 -0.029,-1.445 -1.488,-1.471 -1.597,-1.512 -0.086,-0.026 -0.199,-0.153 -0.256,-0.324 0.004,-0.197 0.016,-0.392 0.029,-0.588 0.028,-0.025 0.049,-0.049 0.049,-0.078 0.039,-0.114 0.133,-0.27 0.291,-0.293 0.098,-0.011 1.502,0.155 1.688,-1.276 0.187,-1.434 -1.254,-1.68 -1.356,-1.731 -0.078,-0.04 -0.176,-0.188 -0.207,-0.366 0.002,-0.002 0,-0.008 0,-0.016 0.039,-0.182 0.076,-0.369 0.115,-0.554 0.028,-0.023 0.057,-0.042 0.059,-0.073 0.066,-0.108 0.174,-0.248 0.338,-0.245 0.099,0.003 1.463,0.373 1.861,-1.014 0.401,-1.386 -0.99,-1.846 -1.086,-1.913 -0.072,-0.054 -0.144,-0.21 -0.15,-0.391 0,0 0,-0.002 0.006,-0.009 0.062,-0.18 0.132,-0.357 0.199,-0.54 0.031,-0.016 0.06,-0.03 0.068,-0.059 0.074,-0.096 0.207,-0.224 0.369,-0.195 0.096,0.016 1.387,0.588 1.989,-0.724 0.601,-1.309 -0.703,-1.975 -0.787,-2.057 -0.069,-0.058 -0.108,-0.221 -0.092,-0.393 0.095,-0.18 0.191,-0.354 0.291,-0.527 0.031,-0.01 0.056,-0.022 0.07,-0.05 0.092,-0.08 0.236,-0.186 0.393,-0.135 0.091,0.029 1.287,0.791 2.074,-0.417 0.793,-1.208 -0.399,-2.055 -0.475,-2.151 -0.052,-0.068 -0.074,-0.231 -0.029,-0.398 0.117,-0.164 0.246,-0.325 0.373,-0.485 0.031,-0.007 0.059,-0.016 0.068,-0.032 0.11,-0.071 0.268,-0.151 0.412,-0.078 0.084,0.046 1.151,0.969 2.114,-0.104 0.959,-1.08 -0.086,-2.096 -0.149,-2.199 -0.041,-0.075 -0.037,-0.238 0.032,-0.401 0.142,-0.14 0.289,-0.284 0.433,-0.422 0.033,0 0.061,-0.004 0.078,-0.022 0.116,-0.056 0.282,-0.11 0.412,-0.017 0.086,0.057 1.004,1.132 2.112,0.211 1.111,-0.92 0.224,-2.083 0.183,-2.192 -0.035,-0.081 -0.006,-0.249 0.096,-0.401 0.158,-0.116 0.316,-0.23 0.479,-0.346 0.035,0.007 0.066,0.007 0.089,-0.011 0.116,-0.034 0.291,-0.065 0.409,0.049 0.07,0.067 0.82,1.272 2.056,0.525 1.235,-0.745 0.53,-2.028 0.504,-2.142 -0.015,-0.086 0.037,-0.254 0.158,-0.387 0,-0.001 0.002,-0.001 0.008,-0.004 0.168,-0.088 0.34,-0.179 0.514,-0.264 0.029,0.013 0.064,0.018 0.094,0.001 0.121,-0.016 0.298,-0.019 0.396,0.111 0.063,0.081 0.619,1.375 1.953,0.822 1.328,-0.553 0.824,-1.922 0.822,-2.039 -0.009,-0.091 0.071,-0.242 0.211,-0.357 l 0.004,-0.002 c 0.184,-0.067 0.366,-0.126 0.551,-0.186 0.031,0.015 0.065,0.025 0.088,0.015 0.127,0 0.301,0.022 0.377,0.168 0.055,0.084 0.412,1.452 1.814,1.103 1.401,-0.347 1.1,-1.777 1.114,-1.894 0.004,-0.09 0.103,-0.224 0.257,-0.316 0.192,-0.038 0.389,-0.072 0.588,-0.105 0.03,0.018 0.055,0.029 0.082,0.025 0.121,0.02 0.295,0.068 0.346,0.219 0.039,0.096 0.19,1.502 1.629,1.365 1.436,-0.134 1.355,-1.597 1.383,-1.709 0.019,-0.084 0.138,-0.203 0.301,-0.278 0.199,-0.002 0.398,-0.01 0.603,-0.013 0.018,0.02 0.045,0.04 0.07,0.04 0.12,0.037 0.284,0.111 0.315,0.27 0.019,0.093 -0.039,1.509 1.4,1.591 1.442,0.078 1.58,-1.374 1.625,-1.486 0.032,-0.082 0.172,-0.186 0.348,-0.232 l 0.006,0 c 0.193,0.024 0.383,0.049 0.572,0.073 0.025,0.025 0.051,0.052 0.078,0.054 0.112,0.055 0.262,0.155 0.268,0.316 0.008,0.096 -0.266,1.488 1.15,1.777 1.412,0.301 1.768,-1.123 1.826,-1.222 0.043,-0.076 0.198,-0.16 0.377,-0.175 0.006,0.004 0.012,0 0.014,0 0.187,0.05 0.371,0.104 0.549,0.155 0.021,0.036 0.041,0.056 0.064,0.067 0.108,0.07 0.24,0.192 0.225,0.351 -0.012,0.1 -0.49,1.429 0.865,1.932 1.357,0.504 1.918,-0.848 1.992,-0.937 0.057,-0.07 0.221,-0.13 0.399,-0.12 0.179,0.084 0.363,0.16 0.535,0.245 0.014,0.03 0.031,0.057 0.058,0.069 0.088,0.085 0.207,0.224 0.159,0.38 -0.018,0.096 -0.688,1.343 0.578,2.043 1.263,0.695 2.017,-0.556 2.105,-0.636 0.067,-0.058 0.233,-0.09 0.399,-0.058 0.174,0.108 0.343,0.215 0.511,0.331 0.006,0.03 0.02,0.054 0.036,0.069 0.082,0.096 0.173,0.249 0.107,0.4 -0.035,0.091 -0.881,1.224 0.264,2.101 1.146,0.879 2.082,-0.242 2.181,-0.31 0.069,-0.047 0.237,-0.055 0.399,0.001 0.152,0.135 0.304,0.267 0.457,0.407 0,0.03 0.006,0.056 0.027,0.071 0.063,0.107 0.131,0.275 0.049,0.414 -0.053,0.083 -1.057,1.081 -0.053,2.114 1.002,1.046 2.09,0.068 2.197,0.019 0.081,-0.037 0.25,-0.02 0.401,0.067 0.133,0.149 0.265,0.302 0.385,0.456 0,0.037 0,0.064 0.025,0.086 0.043,0.111 0.088,0.288 -0.018,0.415 -0.068,0.072 -1.212,0.905 -0.369,2.084 0.83,1.178 2.059,0.374 2.168,0.342 0.088,-0.024 0.256,0.017 0.395,0.13 0,0.003 0.004,0.003 0.008,0.003 0.103,0.168 0.199,0.33 0.302,0.499 -0.011,0.033 -0.011,0.067 0,0.091 0.03,0.118 0.045,0.297 -0.076,0.404 -0.07,0.066 -1.326,0.719 -0.676,2.012 0.657,1.287 1.981,0.677 2.098,0.664 0.088,-0.014 0.252,0.055 0.375,0.184 0,0.003 0.002,0.007 0.002,0.009 0.078,0.175 0.15,0.351 0.227,0.529 -0.012,0.036 -0.024,0.066 -0.01,0.094 0.01,0.123 0,0.304 -0.139,0.389 -0.08,0.053 -1.42,0.515 -0.967,1.886 0.451,1.371 1.854,0.969 1.971,0.97 0.094,10e-4 0.238,0.09 0.336,0.234 0.053,0.191 0.103,0.383 0.152,0.577 -0.017,0.027 -0.035,0.06 -0.025,0.083 -0.01,0.123 -0.043,0.298 -0.191,0.364 -0.084,0.043 -1.479,0.301 -1.237,1.722 0.242,1.423 1.694,1.234 1.807,1.254 0.086,0.015 0.211,0.118 0.297,0.273 0.008,0.113 0.021,0.22 0.035,0.328 0.008,0.091 0.015,0.185 0.023,0.274 C 0.256,-0.385 0.242,-0.36 0.246,-0.335 0.221,-0.215 0.154,-0.046 0,0 m -42.443,15.969 c 2.472,0 4.482,-2.01 4.482,-4.483 l 0,-19.633 5.508,0 0,8.139 7.904,0 0,-6.763 c 0,-4.273 2.694,-7.927 6.481,-9.353 -3.137,-1.836 -6.791,-2.894 -10.682,-2.894 -11.697,0 -21.205,9.515 -21.205,21.21 0,3.334 0.767,6.487 2.146,9.294 0,0 0.959,1.635 1.395,2.311 0.842,1.299 2.344,2.172 3.971,2.172 m 27.884,-27.225 c -2.474,0 -4.484,2.015 -4.484,4.485 l 0,19.632 -5.506,0 0,-7.363 -7.904,0 0,5.988 c 0,4.254 -2.674,7.894 -6.43,9.334 3.016,1.647 6.469,2.581 10.133,2.581 11.697,0 21.209,-9.515 21.209,-21.209 0,-3.199 -0.711,-6.236 -1.986,-8.963 -0.264,-0.561 -0.551,-1.11 -0.86,-1.646 -0.453,-0.814 -0.453,-0.783 -0.902,-1.416 -0.691,-0.98 -1.981,-1.423 -3.27,-1.423"
           style="fill:#49a942;fill-opacity:1;fill-rule:nonzero;stroke:none"
           id="path15108" />
      </g>
      <g
         id="g15110"
         transform="translate(285.3672,581.4023)"
         style="fill:#49a942;fill-opacity:1">
        <path
           inkscape:connector-curvature="0"
           d="m 0,0 -14.32,0 0,18.768 -9.549,0 0,-45.978 9.549,0 0,18.572 14.32,0 0,-18.572 9.551,0 0,45.978 L 0,18.768 0,0 z"
           style="fill:#49a942;fill-opacity:1;fill-rule:nonzero;stroke:none"
           id="path15112" />
      </g>
      <g
         id="g15114"
         transform="translate(321.1348,562.041)"
         style="fill:#49a942;fill-opacity:1">
        <path
           inkscape:connector-curvature="0"
           d="m 0,0 c -5.619,-1.961 -13.074,-0.063 -12.814,6.801 l 0,18.509 -8.893,0 0,-18.442 c 0,-10.008 7.65,-15.37 17.002,-15.37 4.252,0 8.5,0.653 13.736,2.487 l 0,31.325 L 0,25.31 0,0 z"
           style="fill:#49a942;fill-opacity:1;fill-rule:nonzero;stroke:none"
           id="path15116" />
      </g>
      <g
         id="g15118"
         transform="translate(348.2773,588.0698)"
         style="fill:#49a942;fill-opacity:1">
        <path
           inkscape:connector-curvature="0"
           d="m 0,0 c -1.504,0 -3.207,-0.26 -4.842,-0.653 l 0,12.557 -8.959,0 0,-44.21 c 5.168,-1.834 9.549,-2.157 13.344,-2.157 11.18,0 17.398,8.434 17.398,17.001 C 16.941,-8.174 9.68,0 0,0 m -0.457,-26.619 c -1.375,0.069 -2.943,0.134 -4.385,0.39 l 0,17.399 c 1.442,0.528 2.553,0.722 3.797,0.722 4.967,0 9.022,-3.99 9.086,-9.354 0.068,-4.25 -2.941,-9.157 -8.498,-9.157"
           style="fill:#49a942;fill-opacity:1;fill-rule:nonzero;stroke:none"
           id="path15120" />
      </g>
      <g
         id="g15122"
         transform="translate(406.1289,587.5474)"
         style="fill:#49a942;fill-opacity:1">
        <path
           inkscape:connector-curvature="0"
           d="m 0,0 -3.527,-16.609 -1.241,-6.608 -1.638,6.413 -4.709,16.608 -10.071,0 -4.136,-16.635 -1.78,-8.371 -1.601,8.593 L -32.24,0 l -9.221,0 8.238,-33.355 11.838,0 3.924,15.958 1.342,6.805 1.344,-6.805 3.859,-15.958 11.834,0 L 9.422,0 0,0 z"
           style="fill:#49a942;fill-opacity:1;fill-rule:nonzero;stroke:none"
           id="path15124" />
      </g>
      <g
         id="g15126"
         transform="translate(429.4102,588.3311)"
         style="fill:#49a942;fill-opacity:1">
        <path
           inkscape:connector-curvature="0"
           d="m 0,0 c -4.387,0 -8.83,-1.374 -12.754,-4.512 l 3.012,-5.491 c 2.679,1.503 5.621,2.552 8.896,2.552 3.33,0 6.602,-1.509 6.602,-5.692 -8.697,2.811 -20.733,-0.655 -20.733,-10.529 0,-5.69 4.643,-11.185 13.34,-11.185 2.616,0 5.887,1.047 7.979,3.665 l 1.181,-2.947 7.125,0 0,19.883 C 14.648,-4.576 7.586,0 0,0 M 5.822,-25.176 C 4.383,-26.353 1.961,-27.531 0,-27.531 c -4.318,0 -6.738,2.157 -6.67,4.445 0.131,4.775 8.238,5.036 12.492,3.141 l 0,-5.231 z"
           style="fill:#49a942;fill-opacity:1;fill-rule:nonzero;stroke:none"
           id="path15128" />
      </g>
      <g
         id="g15130"
         transform="translate(468.8398,587.3511)"
         style="fill:#49a942;fill-opacity:1">
        <path
           inkscape:connector-curvature="0"
           d="m 0,0 -5.887,-16.609 -1.488,-4.674 -1.91,4.605 L -16.09,0 -25.766,0 c 3.991,-9.813 8.897,-21.188 12.952,-31.066 -1.444,-6.144 -1.702,-7.454 -7.651,-7.389 l 0,-6.737 c 5.426,-1.045 12.684,-0.064 15.168,6.343 L 9.684,0 0,0 z"
           style="fill:#49a942;fill-opacity:1;fill-rule:nonzero;stroke:none"
           id="path15132" />
      </g>
      <g
         id="g15134"
         transform="translate(542.291,568.7935)"
         style="fill:#49a942;fill-opacity:1">
        <path
           inkscape:connector-curvature="0"
           d="m 0,0 c -0.09,0.022 -1.508,0.073 -1.477,1.516 0.026,1.442 1.487,1.473 1.6,1.505 0.082,0.032 0.197,0.16 0.256,0.33 C 0.369,3.548 0.359,3.745 0.348,3.94 0.32,3.962 0.299,3.988 0.299,4.016 0.256,4.131 0.17,4.288 0.008,4.306 -0.09,4.322 -1.494,4.157 -1.682,5.588 c -0.185,1.431 1.254,1.676 1.36,1.729 0.076,0.039 0.172,0.184 0.201,0.362 l 0,0.014 c -0.037,0.189 -0.076,0.375 -0.111,0.56 -0.034,0.022 -0.059,0.045 -0.065,0.074 -0.06,0.105 -0.17,0.246 -0.33,0.24 -0.098,0 -1.465,-0.371 -1.867,1.018 -0.395,1.389 0.994,1.847 1.086,1.913 0.074,0.048 0.144,0.209 0.15,0.386 -0.006,0 0,0.005 -0.006,0.009 -0.064,0.18 -0.131,0.365 -0.197,0.543 -0.033,0.016 -0.055,0.033 -0.064,0.061 -0.08,0.096 -0.207,0.219 -0.368,0.192 -0.099,-0.015 -1.392,-0.587 -1.992,0.724 -0.601,1.312 0.701,1.975 0.789,2.054 0.063,0.06 0.106,0.225 0.078,0.401 -0.087,0.176 -0.181,0.351 -0.283,0.522 -0.029,0.013 -0.054,0.026 -0.07,0.048 -0.092,0.084 -0.233,0.186 -0.389,0.136 -0.092,-0.03 -1.287,-0.788 -2.076,0.419 -0.785,1.209 0.4,2.056 0.473,2.15 0.05,0.068 0.074,0.234 0.027,0.399 -0.121,0.165 -0.242,0.325 -0.367,0.486 -0.029,0.003 -0.057,0.014 -0.07,0.036 -0.1,0.067 -0.266,0.148 -0.407,0.074 -0.088,-0.047 -1.156,-0.971 -2.121,0.105 -0.959,1.077 0.094,2.094 0.153,2.197 0.041,0.075 0.037,0.24 -0.03,0.4 -0.148,0.142 -0.293,0.281 -0.437,0.422 -0.031,0 -0.061,0.004 -0.078,0.025 -0.114,0.053 -0.284,0.112 -0.414,0.013 -0.082,-0.054 -1.002,-1.132 -2.108,-0.209 -1.117,0.921 -0.223,2.081 -0.181,2.192 0.025,0.082 0,0.25 -0.094,0.4 -0.162,0.117 -0.323,0.231 -0.487,0.344 -0.033,-0.006 -0.066,-0.006 -0.087,0.015 -0.114,0.037 -0.293,0.066 -0.409,-0.051 -0.07,-0.067 -0.814,-1.268 -2.052,-0.521 -1.237,0.743 -0.536,2.028 -0.508,2.143 0.019,0.084 -0.037,0.249 -0.158,0.38 0,0.004 -0.002,0.007 -0.002,0.007 -0.172,0.089 -0.344,0.179 -0.518,0.264 -0.033,-0.009 -0.068,-0.015 -0.094,-0.005 -0.123,0.02 -0.299,0.025 -0.4,-0.105 -0.057,-0.082 -0.619,-1.375 -1.953,-0.825 -1.332,0.553 -0.824,1.924 -0.817,2.04 0,0.09 -0.076,0.244 -0.209,0.36 -0.191,0.064 -0.375,0.125 -0.562,0.187 -0.033,-0.014 -0.063,-0.028 -0.086,-0.018 -0.127,0.004 -0.307,-0.024 -0.381,-0.166 -0.043,-0.087 -0.4,-1.454 -1.808,-1.105 -1.401,0.349 -1.106,1.781 -1.116,1.897 -0.008,0.086 -0.107,0.223 -0.256,0.316 -0.193,0.037 -0.388,0.072 -0.591,0.103 -0.026,-0.016 -0.053,-0.031 -0.08,-0.024 -0.124,-0.02 -0.29,-0.067 -0.348,-0.225 -0.031,-0.088 -0.184,-1.495 -1.625,-1.357 -1.438,0.134 -1.359,1.597 -1.383,1.707 -0.018,0.083 -0.141,0.206 -0.301,0.277 -0.199,0.004 -0.398,0.011 -0.599,0.013 -0.024,-0.022 -0.049,-0.042 -0.076,-0.039 -0.118,-0.034 -0.28,-0.111 -0.311,-0.269 -0.023,-0.097 0.035,-1.512 -1.406,-1.59 -1.442,-0.079 -1.576,1.372 -1.623,1.487 -0.032,0.078 -0.17,0.185 -0.346,0.226 l -0.006,0 c -0.193,-0.022 -0.385,-0.045 -0.574,-0.071 -0.026,-0.03 -0.049,-0.052 -0.072,-0.057 -0.12,-0.051 -0.264,-0.151 -0.268,-0.313 -0.012,-0.098 0.26,-1.487 -1.156,-1.782 -1.41,-0.291 -1.768,1.125 -1.824,1.229 -0.047,0.075 -0.202,0.159 -0.375,0.176 -0.01,-0.004 -0.014,-0.004 -0.018,-0.004 -0.188,-0.049 -0.367,-0.098 -0.551,-0.153 -0.015,-0.034 -0.037,-0.059 -0.066,-0.069 -0.102,-0.068 -0.237,-0.186 -0.217,-0.348 0.008,-0.098 0.48,-1.433 -0.873,-1.933 -1.354,-0.502 -1.912,0.849 -1.986,0.94 -0.059,0.068 -0.221,0.127 -0.401,0.118 -0.177,-0.081 -0.359,-0.163 -0.535,-0.243 -0.014,-0.036 -0.027,-0.061 -0.055,-0.072 -0.091,-0.084 -0.207,-0.221 -0.164,-0.379 0.028,-0.097 0.692,-1.345 -0.576,-2.042 -1.264,-0.698 -2.015,0.555 -2.105,0.634 -0.067,0.058 -0.235,0.092 -0.403,0.058 -0.168,-0.11 -0.338,-0.22 -0.504,-0.33 -0.011,-0.031 -0.021,-0.057 -0.041,-0.07 -0.08,-0.097 -0.169,-0.25 -0.105,-0.4 0.039,-0.089 0.883,-1.227 -0.262,-2.104 -1.15,-0.879 -2.084,0.248 -2.185,0.312 -0.065,0.048 -0.233,0.058 -0.401,-0.002 -0.15,-0.132 -0.3,-0.266 -0.451,-0.4 -0.002,-0.034 -0.008,-0.061 -0.033,-0.079 -0.057,-0.103 -0.127,-0.271 -0.041,-0.411 0.047,-0.083 1.055,-1.08 0.049,-2.119 -1,-1.039 -2.09,-0.065 -2.198,-0.016 -0.08,0.037 -0.248,0.019 -0.402,-0.066 -0.133,-0.15 -0.258,-0.302 -0.377,-0.457 0,-0.032 0,-0.063 -0.023,-0.08 -0.045,-0.116 -0.092,-0.291 0.013,-0.417 0.061,-0.072 1.211,-0.908 0.37,-2.086 -0.836,-1.178 -2.063,-0.376 -2.172,-0.342 -0.086,0.022 -0.254,-0.019 -0.397,-0.133 -0.107,-0.166 -0.207,-0.33 -0.303,-0.497 0.004,-0.038 0.006,-0.07 -0.005,-0.093 -0.03,-0.121 -0.047,-0.298 0.08,-0.406 0.068,-0.063 1.322,-0.719 0.674,-2.01 -0.655,-1.289 -1.985,-0.678 -2.104,-0.661 -0.082,0.011 -0.244,-0.058 -0.371,-0.187 0,-0.003 -0.002,-0.003 -0.004,-0.011 -0.076,-0.174 -0.15,-0.352 -0.223,-0.528 0.016,-0.033 0.02,-0.067 0.012,-0.093 -0.012,-0.12 0,-0.3 0.135,-0.39 0.08,-0.053 1.42,-0.514 0.971,-1.886 -0.458,-1.37 -1.862,-0.967 -1.979,-0.968 -0.084,-0.004 -0.234,-0.092 -0.336,-0.238 -0.051,-0.192 -0.101,-0.382 -0.15,-0.572 0.023,-0.031 0.033,-0.061 0.027,-0.087 0.012,-0.122 0.041,-0.3 0.195,-0.365 0.086,-0.038 1.479,-0.296 1.233,-1.721 -0.24,-1.423 -1.688,-1.232 -1.811,-1.254 -0.082,-0.012 -0.211,-0.119 -0.285,-0.27 -0.014,-0.109 -0.027,-0.22 -0.043,-0.334 -0.008,-0.089 -0.017,-0.178 -0.023,-0.27 0.021,-0.026 0.035,-0.052 0.035,-0.078 0.025,-0.12 0.086,-0.288 0.244,-0.334 0.092,-0.027 1.506,-0.07 1.478,-1.515 -0.029,-1.445 -1.488,-1.471 -1.597,-1.512 -0.086,-0.026 -0.199,-0.153 -0.256,-0.324 0.004,-0.197 0.016,-0.392 0.029,-0.588 0.028,-0.025 0.049,-0.049 0.049,-0.078 0.039,-0.114 0.133,-0.27 0.291,-0.293 0.098,-0.011 1.502,0.155 1.688,-1.276 0.187,-1.434 -1.254,-1.68 -1.356,-1.731 -0.078,-0.04 -0.176,-0.188 -0.207,-0.366 0.002,-0.002 0,-0.008 0,-0.016 0.039,-0.182 0.076,-0.369 0.115,-0.554 0.028,-0.023 0.057,-0.042 0.059,-0.073 0.066,-0.108 0.174,-0.248 0.338,-0.245 0.099,0.003 1.463,0.373 1.861,-1.014 0.401,-1.386 -0.99,-1.846 -1.086,-1.913 -0.072,-0.054 -0.144,-0.21 -0.15,-0.391 0,0 0,-0.002 0.006,-0.009 0.062,-0.18 0.132,-0.357 0.199,-0.54 0.031,-0.016 0.06,-0.03 0.068,-0.059 0.074,-0.096 0.207,-0.224 0.369,-0.195 0.096,0.016 1.387,0.588 1.989,-0.724 0.601,-1.309 -0.703,-1.975 -0.787,-2.057 -0.069,-0.058 -0.108,-0.221 -0.092,-0.393 0.095,-0.18 0.191,-0.354 0.291,-0.527 0.031,-0.01 0.056,-0.022 0.07,-0.05 0.092,-0.08 0.236,-0.186 0.393,-0.135 0.091,0.029 1.287,0.791 2.074,-0.417 0.793,-1.208 -0.399,-2.055 -0.475,-2.151 -0.052,-0.068 -0.074,-0.231 -0.029,-0.398 0.117,-0.164 0.246,-0.325 0.373,-0.485 0.031,-0.007 0.059,-0.016 0.068,-0.032 0.11,-0.071 0.268,-0.151 0.412,-0.078 0.084,0.046 1.151,0.969 2.114,-0.104 0.959,-1.08 -0.086,-2.096 -0.149,-2.199 -0.041,-0.075 -0.037,-0.238 0.032,-0.401 0.142,-0.14 0.289,-0.284 0.433,-0.422 0.033,0 0.061,-0.004 0.078,-0.022 0.116,-0.056 0.282,-0.11 0.412,-0.017 0.086,0.057 1.004,1.132 2.112,0.211 1.111,-0.92 0.224,-2.083 0.183,-2.192 -0.035,-0.081 -0.006,-0.249 0.096,-0.401 0.158,-0.116 0.316,-0.23 0.479,-0.346 0.035,0.007 0.066,0.007 0.089,-0.011 0.116,-0.034 0.291,-0.065 0.409,0.049 0.07,0.067 0.82,1.272 2.056,0.525 1.235,-0.745 0.53,-2.028 0.504,-2.142 -0.015,-0.086 0.037,-0.254 0.158,-0.387 0,-0.001 0.002,-0.001 0.008,-0.004 0.168,-0.088 0.34,-0.179 0.514,-0.264 0.029,0.013 0.064,0.018 0.094,0.001 0.121,-0.016 0.298,-0.019 0.396,0.111 0.063,0.081 0.619,1.375 1.953,0.822 1.328,-0.553 0.824,-1.922 0.822,-2.039 -0.009,-0.091 0.071,-0.242 0.211,-0.357 l 0.004,-0.002 c 0.184,-0.067 0.366,-0.126 0.551,-0.186 0.031,0.015 0.065,0.025 0.088,0.015 0.127,0 0.301,0.022 0.377,0.168 0.055,0.084 0.412,1.452 1.814,1.103 1.401,-0.347 1.1,-1.777 1.114,-1.894 0.004,-0.09 0.103,-0.224 0.257,-0.316 0.192,-0.038 0.389,-0.072 0.588,-0.105 0.03,0.018 0.055,0.029 0.082,0.025 0.121,0.02 0.295,0.068 0.346,0.219 0.039,0.096 0.19,1.502 1.629,1.365 1.436,-0.134 1.355,-1.597 1.383,-1.709 0.019,-0.084 0.138,-0.203 0.301,-0.278 0.199,-0.002 0.398,-0.01 0.603,-0.013 0.018,0.02 0.045,0.04 0.07,0.04 0.12,0.037 0.284,0.111 0.315,0.27 0.019,0.093 -0.039,1.509 1.4,1.591 1.442,0.078 1.58,-1.374 1.625,-1.486 0.032,-0.082 0.172,-0.186 0.348,-0.232 l 0.006,0 c 0.193,0.024 0.383,0.049 0.572,0.073 0.025,0.025 0.051,0.052 0.078,0.054 0.112,0.055 0.262,0.155 0.268,0.316 0.008,0.096 -0.266,1.488 1.15,1.777 1.412,0.301 1.768,-1.123 1.826,-1.222 0.043,-0.076 0.198,-0.16 0.377,-0.175 0.006,0.004 0.012,0 0.014,0 0.187,0.05 0.371,0.104 0.549,0.155 0.021,0.036 0.041,0.056 0.064,0.067 0.108,0.07 0.24,0.192 0.225,0.351 -0.012,0.1 -0.49,1.429 0.865,1.932 1.357,0.504 1.918,-0.848 1.992,-0.937 0.057,-0.07 0.221,-0.13 0.399,-0.12 0.179,0.084 0.363,0.16 0.535,0.245 0.014,0.03 0.031,0.057 0.058,0.069 0.088,0.085 0.207,0.224 0.159,0.38 -0.018,0.096 -0.688,1.343 0.578,2.043 1.263,0.695 2.017,-0.556 2.105,-0.636 0.067,-0.058 0.233,-0.09 0.399,-0.058 0.174,0.108 0.343,0.215 0.511,0.331 0.006,0.03 0.02,0.054 0.036,0.069 0.082,0.096 0.173,0.249 0.107,0.4 -0.035,0.091 -0.881,1.224 0.264,2.101 1.146,0.879 2.082,-0.242 2.181,-0.31 0.069,-0.047 0.237,-0.055 0.399,0.001 0.152,0.135 0.304,0.267 0.457,0.407 0,0.03 0.006,0.056 0.027,0.071 0.063,0.107 0.131,0.275 0.049,0.414 -0.053,0.083 -1.057,1.081 -0.053,2.114 1.002,1.046 2.09,0.068 2.197,0.019 0.081,-0.037 0.25,-0.02 0.401,0.067 0.133,0.149 0.265,0.302 0.385,0.456 0,0.037 0,0.064 0.025,0.086 0.043,0.111 0.088,0.288 -0.018,0.415 -0.068,0.072 -1.212,0.905 -0.369,2.084 0.83,1.178 2.059,0.374 2.168,0.342 0.088,-0.024 0.256,0.017 0.395,0.13 0,0.003 0.004,0.003 0.008,0.003 0.103,0.168 0.199,0.33 0.302,0.499 -0.011,0.033 -0.011,0.067 0,0.091 0.03,0.118 0.045,0.297 -0.076,0.404 -0.07,0.066 -1.326,0.719 -0.676,2.012 0.657,1.287 1.981,0.677 2.098,0.664 0.088,-0.014 0.252,0.055 0.375,0.184 0,0.003 0.002,0.007 0.002,0.009 0.078,0.175 0.15,0.351 0.227,0.529 -0.012,0.036 -0.024,0.066 -0.01,0.094 0.01,0.123 0,0.304 -0.139,0.389 -0.08,0.053 -1.42,0.515 -0.967,1.886 0.451,1.371 1.854,0.969 1.971,0.97 0.094,10e-4 0.238,0.09 0.336,0.234 0.053,0.191 0.103,0.383 0.152,0.577 -0.017,0.027 -0.035,0.06 -0.025,0.083 -0.01,0.123 -0.043,0.298 -0.191,0.364 -0.084,0.043 -1.479,0.301 -1.237,1.722 0.242,1.423 1.694,1.234 1.807,1.254 0.086,0.015 0.211,0.118 0.297,0.273 0.008,0.113 0.021,0.22 0.035,0.328 0.008,0.091 0.015,0.185 0.023,0.274 C 0.256,-0.385 0.242,-0.36 0.246,-0.335 0.221,-0.215 0.154,-0.046 0,0 m -42.443,15.969 c 2.472,0 4.482,-2.01 4.482,-4.483 l 0,-19.633 5.508,0 0,8.139 7.904,0 0,-6.763 c 0,-4.273 2.694,-7.927 6.481,-9.353 -3.137,-1.836 -6.791,-2.894 -10.682,-2.894 -11.697,0 -21.205,9.515 -21.205,21.21 0,3.334 0.767,6.487 2.146,9.294 0,0 0.959,1.635 1.395,2.311 0.842,1.299 2.344,2.172 3.971,2.172 m 27.884,-27.225 c -2.474,0 -4.484,2.015 -4.484,4.485 l 0,19.632 -5.506,0 0,-7.363 -7.904,0 0,5.988 c 0,4.254 -2.674,7.894 -6.43,9.334 3.016,1.647 6.469,2.581 10.133,2.581 11.697,0 21.209,-9.515 21.209,-21.209 0,-3.199 -0.711,-6.236 -1.986,-8.963 -0.264,-0.561 -0.551,-1.11 -0.86,-1.646 -0.453,-0.814 -0.453,-0.783 -0.902,-1.416 -0.691,-0.98 -1.981,-1.423 -3.27,-1.423"
           style="fill:#49a942;fill-opacity:1;fill-rule:nonzero;stroke:none"
           id="path15136" />
      </g>
    </g>
  </g>
</svg>
