<?xml version="1.0" encoding="UTF-8" standalone="no"?>
<!-- Created with Inkscape (http://www.inkscape.org/) -->

<svg
   xmlns:dc="http://purl.org/dc/elements/1.1/"
   xmlns:cc="http://creativecommons.org/ns#"
   xmlns:rdf="http://www.w3.org/1999/02/22-rdf-syntax-ns#"
   xmlns:svg="http://www.w3.org/2000/svg"
   xmlns="http://www.w3.org/2000/svg"
   xmlns:sodipodi="http://sodipodi.sourceforge.net/DTD/sodipodi-0.dtd"
   xmlns:inkscape="http://www.inkscape.org/namespaces/inkscape"
   width="30.37875"
   height="30.375"
   id="svg2"
   version="1.1"
   inkscape:version="0.48.2 r9819"
   sodipodi:docname="New document 1">
  <defs
     id="defs4">
    <clipPath
       id="clipPath15226"
       clipPathUnits="userSpaceOnUse">
      <path
         id="path15228"
         d="m 0,623.412 804.168,0 L 804.168,0 0,0 0,623.412 z"
         inkscape:connector-curvature="0" />
    </clipPath>
    <clipPath
       id="clipPath15180"
       clipPathUnits="userSpaceOnUse">
      <path
         id="path15182"
         d="m 0,623.412 804.168,0 L 804.168,0 0,0 0,623.412 z"
         inkscape:connector-curvature="0" />
    </clipPath>
    <clipPath
       id="clipPath15146"
       clipPathUnits="userSpaceOnUse">
      <path
         id="path15148"
         d="m 0,623.412 804.168,0 L 804.168,0 0,0 0,623.412 z"
         inkscape:connector-curvature="0" />
    </clipPath>
    <clipPath
       id="clipPath15082"
       clipPathUnits="userSpaceOnUse">
      <path
         id="path15084"
         d="m 0,623.412 804.168,0 L 804.168,0 0,0 0,623.412 z"
         inkscape:connector-curvature="0" />
    </clipPath>
    <clipPath
       id="clipPath14934"
       clipPathUnits="userSpaceOnUse">
      <path
         id="path14936"
         d="m 0.181,0 803.987,0 0,517.28 -803.987,0 0,-517.28 z"
         inkscape:connector-curvature="0" />
    </clipPath>
    <clipPath
       id="clipPath14676"
       clipPathUnits="userSpaceOnUse">
      <path
         id="path14678"
         d="m 0.181,0 803.987,0 0,517.28 -803.987,0 0,-517.28 z"
         inkscape:connector-curvature="0" />
    </clipPath>
    <clipPath
       id="clipPath14338"
       clipPathUnits="userSpaceOnUse">
      <path
         id="path14340"
         d="m 0.181,0 803.987,0 0,517.28 -803.987,0 0,-517.28 z"
         inkscape:connector-curvature="0" />
    </clipPath>
    <clipPath
       id="clipPath13950"
       clipPathUnits="userSpaceOnUse">
      <path
         id="path13952"
         d="m 0.181,0 803.987,0 0,517.28 -803.987,0 0,-517.28 z"
         inkscape:connector-curvature="0" />
    </clipPath>
    <clipPath
       id="clipPath13930"
       clipPathUnits="userSpaceOnUse">
      <path
         id="path13932"
         d="m 0.181,0 803.987,0 0,517.28 -803.987,0 0,-517.28 z"
         inkscape:connector-curvature="0" />
    </clipPath>
    <clipPath
       id="clipPath13910"
       clipPathUnits="userSpaceOnUse">
      <path
         id="path13912"
         d="m 0.181,0 803.987,0 0,517.28 -803.987,0 0,-517.28 z"
         inkscape:connector-curvature="0" />
    </clipPath>
    <clipPath
       id="clipPath13890"
       clipPathUnits="userSpaceOnUse">
      <path
         id="path13892"
         d="m 0.181,0 803.987,0 0,517.28 -803.987,0 0,-517.28 z"
         inkscape:connector-curvature="0" />
    </clipPath>
    <clipPath
       id="clipPath13874"
       clipPathUnits="userSpaceOnUse">
      <path
         id="path13876"
         d="m 0.181,0 803.987,0 0,517.28 -803.987,0 0,-517.28 z"
         inkscape:connector-curvature="0" />
    </clipPath>
    <clipPath
       id="clipPath13850"
       clipPathUnits="userSpaceOnUse">
      <path
         id="path13852"
         d="m 0.181,0 803.987,0 0,517.28 -803.987,0 0,-517.28 z"
         inkscape:connector-curvature="0" />
    </clipPath>
    <clipPath
       id="clipPath13834"
       clipPathUnits="userSpaceOnUse">
      <path
         id="path13836"
         d="m 0.181,0 803.987,0 0,517.28 -803.987,0 0,-517.28 z"
         inkscape:connector-curvature="0" />
    </clipPath>
    <clipPath
       id="clipPath13806"
       clipPathUnits="userSpaceOnUse">
      <path
         id="path13808"
         d="m 0.181,0 803.987,0 0,517.28 -803.987,0 0,-517.28 z"
         inkscape:connector-curvature="0" />
    </clipPath>
    <clipPath
       id="clipPath13782"
       clipPathUnits="userSpaceOnUse">
      <path
         id="path13784"
         d="m 0.181,0 803.987,0 0,517.28 -803.987,0 0,-517.28 z"
         inkscape:connector-curvature="0" />
    </clipPath>
    <clipPath
       id="clipPath13762"
       clipPathUnits="userSpaceOnUse">
      <path
         id="path13764"
         d="m 0.181,0 803.987,0 0,517.28 -803.987,0 0,-517.28 z"
         inkscape:connector-curvature="0" />
    </clipPath>
    <clipPath
       id="clipPath13730"
       clipPathUnits="userSpaceOnUse">
      <path
         id="path13732"
         d="m 0.181,0 803.987,0 0,517.28 -803.987,0 0,-517.28 z"
         inkscape:connector-curvature="0" />
    </clipPath>
    <clipPath
       id="clipPath13714"
       clipPathUnits="userSpaceOnUse">
      <path
         id="path13716"
         d="m 0.181,0 803.987,0 0,517.28 -803.987,0 0,-517.28 z"
         inkscape:connector-curvature="0" />
    </clipPath>
    <clipPath
       id="clipPath13690"
       clipPathUnits="userSpaceOnUse">
      <path
         id="path13692"
         d="m 0.181,0 803.987,0 0,517.28 -803.987,0 0,-517.28 z"
         inkscape:connector-curvature="0" />
    </clipPath>
    <clipPath
       id="clipPath13674"
       clipPathUnits="userSpaceOnUse">
      <path
         id="path13676"
         d="m 0.181,0 803.987,0 0,517.28 -803.987,0 0,-517.28 z"
         inkscape:connector-curvature="0" />
    </clipPath>
    <clipPath
       id="clipPath13654"
       clipPathUnits="userSpaceOnUse">
      <path
         id="path13656"
         d="m 0.181,0 803.987,0 0,517.28 -803.987,0 0,-517.28 z"
         inkscape:connector-curvature="0" />
    </clipPath>
    <clipPath
       id="clipPath13638"
       clipPathUnits="userSpaceOnUse">
      <path
         id="path13640"
         d="m 0.181,0 803.987,0 0,517.28 -803.987,0 0,-517.28 z"
         inkscape:connector-curvature="0" />
    </clipPath>
    <clipPath
       id="clipPath13606"
       clipPathUnits="userSpaceOnUse">
      <path
         id="path13608"
         d="m 0.181,0 803.987,0 0,517.28 -803.987,0 0,-517.28 z"
         inkscape:connector-curvature="0" />
    </clipPath>
    <clipPath
       id="clipPath13566"
       clipPathUnits="userSpaceOnUse">
      <path
         id="path13568"
         d="m 0.181,0 803.987,0 0,517.28 -803.987,0 0,-517.28 z"
         inkscape:connector-curvature="0" />
    </clipPath>
    <clipPath
       id="clipPath13534"
       clipPathUnits="userSpaceOnUse">
      <path
         id="path13536"
         d="m 0.181,0 803.987,0 0,517.28 -803.987,0 0,-517.28 z"
         inkscape:connector-curvature="0" />
    </clipPath>
    <clipPath
       id="clipPath13506"
       clipPathUnits="userSpaceOnUse">
      <path
         id="path13508"
         d="m 0.181,0 803.987,0 0,517.28 -803.987,0 0,-517.28 z"
         inkscape:connector-curvature="0" />
    </clipPath>
    <clipPath
       id="clipPath13478"
       clipPathUnits="userSpaceOnUse">
      <path
         id="path13480"
         d="m 0.181,0 803.987,0 0,517.28 -803.987,0 0,-517.28 z"
         inkscape:connector-curvature="0" />
    </clipPath>
    <clipPath
       id="clipPath13450"
       clipPathUnits="userSpaceOnUse">
      <path
         id="path13452"
         d="m 0.181,0 803.987,0 0,517.28 -803.987,0 0,-517.28 z"
         inkscape:connector-curvature="0" />
    </clipPath>
    <clipPath
       id="clipPath13426"
       clipPathUnits="userSpaceOnUse">
      <path
         id="path13428"
         d="m 0.181,0 803.987,0 0,517.28 -803.987,0 0,-517.28 z"
         inkscape:connector-curvature="0" />
    </clipPath>
    <clipPath
       id="clipPath13402"
       clipPathUnits="userSpaceOnUse">
      <path
         id="path13404"
         d="m 0.181,0 803.987,0 0,517.28 -803.987,0 0,-517.28 z"
         inkscape:connector-curvature="0" />
    </clipPath>
    <clipPath
       id="clipPath13382"
       clipPathUnits="userSpaceOnUse">
      <path
         id="path13384"
         d="m 0.181,0 803.987,0 0,517.28 -803.987,0 0,-517.28 z"
         inkscape:connector-curvature="0" />
    </clipPath>
    <clipPath
       id="clipPath13366"
       clipPathUnits="userSpaceOnUse">
      <path
         id="path13368"
         d="m 0.181,0 803.987,0 0,517.28 -803.987,0 0,-517.28 z"
         inkscape:connector-curvature="0" />
    </clipPath>
    <clipPath
       id="clipPath13350"
       clipPathUnits="userSpaceOnUse">
      <path
         id="path13352"
         d="m 0.181,0 803.987,0 0,517.28 -803.987,0 0,-517.28 z"
         inkscape:connector-curvature="0" />
    </clipPath>
    <clipPath
       id="clipPath13326"
       clipPathUnits="userSpaceOnUse">
      <path
         id="path13328"
         d="m 0.181,0 803.987,0 0,517.28 -803.987,0 0,-517.28 z"
         inkscape:connector-curvature="0" />
    </clipPath>
    <clipPath
       id="clipPath13302"
       clipPathUnits="userSpaceOnUse">
      <path
         id="path13304"
         d="m 0.181,0 803.987,0 0,517.28 -803.987,0 0,-517.28 z"
         inkscape:connector-curvature="0" />
    </clipPath>
    <clipPath
       id="clipPath13274"
       clipPathUnits="userSpaceOnUse">
      <path
         id="path13276"
         d="m 0.181,0 803.987,0 0,517.28 -803.987,0 0,-517.28 z"
         inkscape:connector-curvature="0" />
    </clipPath>
    <clipPath
       id="clipPath13254"
       clipPathUnits="userSpaceOnUse">
      <path
         id="path13256"
         d="m 0.181,0 803.987,0 0,517.28 -803.987,0 0,-517.28 z"
         inkscape:connector-curvature="0" />
    </clipPath>
    <clipPath
       id="clipPath13210"
       clipPathUnits="userSpaceOnUse">
      <path
         id="path13212"
         d="m 0.181,0 803.987,0 0,517.28 -803.987,0 0,-517.28 z"
         inkscape:connector-curvature="0" />
    </clipPath>
    <clipPath
       id="clipPath13186"
       clipPathUnits="userSpaceOnUse">
      <path
         id="path13188"
         d="m 0.181,0 803.987,0 0,517.28 -803.987,0 0,-517.28 z"
         inkscape:connector-curvature="0" />
    </clipPath>
    <clipPath
       id="clipPath13166"
       clipPathUnits="userSpaceOnUse">
      <path
         id="path13168"
         d="m 0.181,0 803.987,0 0,517.28 -803.987,0 0,-517.28 z"
         inkscape:connector-curvature="0" />
    </clipPath>
    <clipPath
       id="clipPath13122"
       clipPathUnits="userSpaceOnUse">
      <path
         id="path13124"
         d="m 0.181,0 803.987,0 0,517.28 -803.987,0 0,-517.28 z"
         inkscape:connector-curvature="0" />
    </clipPath>
    <clipPath
       id="clipPath13106"
       clipPathUnits="userSpaceOnUse">
      <path
         id="path13108"
         d="m 0.181,0 803.987,0 0,517.28 -803.987,0 0,-517.28 z"
         inkscape:connector-curvature="0" />
    </clipPath>
    <clipPath
       id="clipPath12610"
       clipPathUnits="userSpaceOnUse">
      <path
         id="path12612"
         d="m 0.181,0 803.987,0 0,517.28 -803.987,0 0,-517.28 z"
         inkscape:connector-curvature="0" />
    </clipPath>
    <clipPath
       id="clipPath11436"
       clipPathUnits="userSpaceOnUse">
      <path
         id="path11438"
         d="m 485.314,584.485 266.104,0 0,-234.184 -266.104,0 0,234.184 z"
         inkscape:connector-curvature="0" />
    </clipPath>
    <clipPath
       id="clipPath11420"
       clipPathUnits="userSpaceOnUse">
      <path
         id="path11422"
         d="m 504.602,570.094 239.606,0 0,-218.952 -239.606,0 0,218.952 z"
         inkscape:connector-curvature="0" />
    </clipPath>
    <clipPath
       id="clipPath3024"
       clipPathUnits="userSpaceOnUse">
      <path
         id="path3026"
         d="m 0.181,0 803.987,0 0,517.28 -803.987,0 0,-517.28 z"
         inkscape:connector-curvature="0" />
    </clipPath>
  </defs>
  <sodipodi:namedview
     id="base"
     pagecolor="#ffffff"
     bordercolor="#666666"
     borderopacity="1.0"
     inkscape:pageopacity="0.0"
     inkscape:pageshadow="2"
     inkscape:zoom="0.51556373"
     inkscape:cx="-0.68421361"
     inkscape:cy="328.1153"
     inkscape:document-units="px"
     inkscape:current-layer="g3012"
     showgrid="false"
     fit-margin-top="0"
     fit-margin-left="0"
     fit-margin-right="0"
     fit-margin-bottom="0"
     inkscape:window-width="1317"
     inkscape:window-height="819"
     inkscape:window-x="75"
     inkscape:window-y="9"
     inkscape:window-maximized="0" />
  <metadata
     id="metadata7">
    <rdf:RDF>
      <cc:Work
         rdf:about="">
        <dc:format>image/svg+xml</dc:format>
        <dc:type
           rdf:resource="http://purl.org/dc/dcmitype/StillImage" />
        <dc:title></dc:title>
      </cc:Work>
    </rdf:RDF>
  </metadata>
  <g
     inkscape:label="Layer 1"
     inkscape:groupmode="layer"
     id="layer1"
     transform="translate(-365.85436,-166.53519)">
    <g
       transform="matrix(1.25,0,0,-1.25,-127.605,921.99468)"
       inkscape:label="hubway-map-4"
       id="g3012">
      <g
         id="g23781"
         transform="translate(12.756477,144.47943)">
        <g
           transform="translate(406.31401,447.73816)"
           id="g23783">
          <path
             id="path23785"
             style="fill:#231f20;fill-opacity:1;fill-rule:nonzero;stroke:none"
             d="m 0,0 c 0,-6.71 -5.441,-12.15 -12.151,-12.15 -6.71,0 -12.152,5.44 -12.152,12.15 0,6.71 5.442,12.15 12.152,12.15 C -5.441,12.15 0,6.71 0,0"
             inkscape:connector-curvature="0" />
        </g>
        <g
           transform="translate(403.27991,447.73086)"
           id="g23787">
          <path
             id="path23789"
             style="fill:#49a942;fill-opacity:1;fill-rule:nonzero;stroke:none"
             d="m 0,0 c 0,-5.033 -4.079,-9.112 -9.112,-9.112 -5.034,0 -9.114,4.079 -9.114,9.112 0,5.033 4.08,9.113 9.114,9.113 C -4.079,9.113 0,5.033 0,0"
             inkscape:connector-curvature="0" />
        </g>
        <g
           transform="translate(399.33061,442.84116)"
           id="g23791">
          <path
             id="path23793"
             style="fill:#ffffff;fill-opacity:1;fill-rule:nonzero;stroke:none"
             d="m 0,0 c -0.901,0 -1.634,0.732 -1.634,1.632 l 0,7.15 -2.005,0 0,-2.681 -2.878,0 0,2.181 c 0,1.549 -0.972,2.875 -2.341,3.399 1.097,0.599 2.355,0.94 3.69,0.94 4.259,0 7.724,-3.465 7.724,-7.724 C 2.556,3.731 2.297,2.625 1.833,1.632 1.735,1.428 1.63,1.228 1.519,1.034 1.442,0.841 1.331,0.666 1.19,0.517 0.892,0.199 0.47,0 0,0 m -10.155,9.914 c 0.9,0 1.634,-0.732 1.634,-1.632 l 0,-7.151 2.004,0 0,2.965 2.878,0 0,-2.464 c 0,-1.556 0.984,-2.887 2.362,-3.406 -1.144,-0.669 -2.473,-1.053 -3.891,-1.053 -4.259,0 -7.724,3.465 -7.724,7.724 0,1.213 0.282,2.362 0.782,3.385 0,0 0.351,0.595 0.509,0.841 0.305,0.474 0.854,0.791 1.446,0.791 M 5.304,4.099 C 5.269,4.107 4.753,4.125 4.764,4.651 4.774,5.177 5.308,5.187 5.349,5.2 5.378,5.209 5.419,5.257 5.438,5.319 5.437,5.391 5.433,5.462 5.427,5.533 5.419,5.542 5.413,5.551 5.411,5.561 5.396,5.603 5.362,5.66 5.304,5.667 5.269,5.672 4.759,5.612 4.688,6.133 4.622,6.655 5.146,6.744 5.185,6.763 5.214,6.778 5.247,6.831 5.257,6.896 l 0,0.005 C 5.245,6.969 5.231,7.037 5.216,7.104 5.204,7.112 5.196,7.121 5.194,7.131 5.173,7.169 5.133,7.222 5.073,7.219 5.038,7.218 4.54,7.084 4.395,7.589 4.249,8.095 4.757,8.261 4.79,8.285 c 0.026,0.019 0.053,0.076 0.055,0.142 -0.002,0 0,0.002 -0.002,0.003 C 4.821,8.496 4.794,8.562 4.771,8.628 4.759,8.633 4.751,8.64 4.746,8.65 4.718,8.685 4.671,8.729 4.612,8.72 4.577,8.713 4.106,8.505 3.886,8.984 3.668,9.461 4.144,9.702 4.175,9.732 4.196,9.753 4.214,9.813 4.206,9.877 4.172,9.942 4.136,10.005 4.101,10.068 4.091,10.072 4.079,10.077 4.075,10.085 4.042,10.116 3.989,10.153 3.933,10.135 3.897,10.124 3.464,9.847 3.177,10.287 c -0.287,0.441 0.146,0.749 0.174,0.783 0.017,0.025 0.025,0.085 0.007,0.145 -0.043,0.06 -0.087,0.118 -0.132,0.177 -0.01,0.002 -0.022,0.006 -0.027,0.013 C 3.163,11.43 3.104,11.459 3.052,11.432 3.019,11.417 2.63,11.079 2.28,11.471 c -0.351,0.393 0.033,0.762 0.053,0.8 0.016,0.026 0.016,0.088 -0.008,0.145 -0.056,0.053 -0.109,0.104 -0.16,0.155 -0.012,0 -0.021,0.002 -0.029,0.008 -0.039,0.02 -0.103,0.041 -0.151,0.004 -0.029,-0.019 -0.363,-0.412 -0.767,-0.076 -0.405,0.336 -0.082,0.759 -0.067,0.8 0.01,0.029 0,0.09 -0.035,0.145 C 1.06,13.494 0.999,13.537 0.94,13.578 0.927,13.576 0.919,13.576 0.909,13.582 0.866,13.595 0.802,13.606 0.761,13.564 0.733,13.54 0.462,13.102 0.013,13.374 c -0.451,0.272 -0.195,0.738 -0.184,0.78 0.006,0.032 -0.016,0.092 -0.058,0.14 0,0 -0.002,10e-4 -0.004,0.002 -0.061,0.033 -0.123,0.065 -0.186,0.096 -0.014,-0.004 -0.025,-0.007 -0.033,-10e-4 -0.045,0.006 -0.111,0.008 -0.147,-0.04 -0.021,-0.028 -0.226,-0.501 -0.711,-0.3 -0.486,0.202 -0.3,0.701 -0.298,0.744 0.002,0.032 -0.027,0.088 -0.079,0.13 -0.066,0.024 -0.134,0.046 -0.201,0.068 -0.011,-0.006 -0.023,-0.009 -0.033,-0.006 -0.043,0 -0.109,-0.009 -0.137,-0.06 -0.017,-0.032 -0.148,-0.531 -0.66,-0.403 -0.51,0.127 -0.402,0.648 -0.406,0.691 -0.002,0.031 -0.039,0.081 -0.093,0.115 -0.071,0.013 -0.141,0.026 -0.216,0.038 -0.007,-0.008 -0.018,-0.012 -0.029,-0.009 -0.043,-0.007 -0.106,-0.025 -0.127,-0.081 -0.01,-0.033 -0.067,-0.546 -0.59,-0.496 -0.525,0.049 -0.496,0.581 -0.504,0.622 -0.009,0.031 -0.051,0.075 -0.111,0.1 -0.07,0.003 -0.145,0.006 -0.217,0.006 -0.01,-0.009 -0.017,-0.015 -0.029,-0.014 -0.041,-0.013 -0.102,-0.04 -0.115,-0.098 -0.006,-0.035 0.017,-0.551 -0.51,-0.579 -0.523,-0.03 -0.574,0.5 -0.592,0.541 -0.012,0.029 -0.06,0.067 -0.125,0.083 l -0.004,0 c -0.066,-0.008 -0.136,-0.017 -0.207,-0.026 -0.01,-0.011 -0.017,-0.019 -0.028,-0.021 -0.041,-0.019 -0.095,-0.055 -0.099,-0.114 0,-0.036 0.098,-0.541 -0.417,-0.648 -0.514,-0.107 -0.643,0.41 -0.667,0.446 -0.013,0.028 -0.071,0.058 -0.136,0.064 l -0.005,0 c -0.066,-0.019 -0.134,-0.037 -0.2,-0.056 -0.006,-0.013 -0.016,-0.022 -0.024,-0.025 -0.037,-0.025 -0.086,-0.069 -0.08,-0.128 0.004,-0.035 0.176,-0.521 -0.317,-0.704 -0.494,-0.182 -0.698,0.31 -0.724,0.343 -0.022,0.025 -0.08,0.047 -0.145,0.042 -0.066,-0.029 -0.132,-0.058 -0.197,-0.088 -0.006,-0.012 -0.01,-0.022 -0.018,-0.026 -0.035,-0.03 -0.076,-0.081 -0.06,-0.138 0.008,-0.035 0.25,-0.489 -0.209,-0.744 -0.461,-0.253 -0.736,0.202 -0.769,0.231 -0.022,0.021 -0.083,0.033 -0.145,0.021 -0.061,-0.039 -0.123,-0.08 -0.184,-0.12 -0.004,-0.01 -0.007,-0.021 -0.015,-0.026 -0.03,-0.035 -0.061,-0.091 -0.037,-0.145 0.012,-0.034 0.32,-0.447 -0.098,-0.767 -0.417,-0.319 -0.757,0.091 -0.793,0.115 -0.025,0.017 -0.086,0.02 -0.146,-10e-4 -0.055,-0.048 -0.111,-0.097 -0.165,-0.147 -0.003,-0.011 -0.003,-0.022 -0.011,-0.028 -0.023,-0.038 -0.047,-0.098 -0.018,-0.149 0.02,-0.03 0.385,-0.393 0.02,-0.771 -0.365,-0.379 -0.762,-0.025 -0.803,-0.006 -0.025,0.013 -0.088,0.006 -0.145,-0.025 -0.048,-0.054 -0.093,-0.11 -0.14,-0.166 0.002,-0.011 0,-0.023 -0.006,-0.03 -0.016,-0.043 -0.033,-0.106 0.006,-0.151 0.021,-0.028 0.439,-0.331 0.135,-0.76 -0.307,-0.429 -0.752,-0.138 -0.793,-0.125 -0.031,0.009 -0.092,-0.007 -0.143,-0.047 l -0.002,-10e-4 c -0.037,-0.06 -0.073,-0.121 -0.109,-0.181 0.002,-0.013 0.002,-0.026 -0.002,-0.034 -0.01,-0.044 -0.016,-0.109 0.027,-0.147 0.027,-0.024 0.484,-0.263 0.246,-0.732 -0.236,-0.469 -0.72,-0.248 -0.763,-0.242 -0.034,0.004 -0.09,-0.02 -0.135,-0.067 0,-0.002 -0.004,-0.002 -0.004,-0.004 -0.026,-0.064 -0.053,-0.128 -0.078,-0.193 0.004,-0.012 0.006,-0.025 0.002,-0.033 -0.002,-0.045 0,-0.111 0.05,-0.142 0.03,-0.02 0.518,-0.188 0.352,-0.687 -0.164,-0.5 -0.678,-0.352 -0.72,-0.353 -0.03,-0.002 -0.085,-0.034 -0.122,-0.085 -0.019,-0.071 -0.037,-0.141 -0.054,-0.21 0.007,-0.012 0.011,-0.022 0.007,-0.032 0.005,-0.044 0.018,-0.109 0.071,-0.132 0.035,-0.015 0.541,-0.108 0.451,-0.627 -0.088,-0.518 -0.615,-0.45 -0.658,-0.457 -0.03,-0.004 -0.077,-0.043 -0.106,-0.099 -0.004,-0.04 -0.01,-0.08 -0.013,-0.121 -0.004,-0.032 -0.008,-0.066 -0.01,-0.099 0.008,-0.009 0.012,-0.018 0.011,-0.028 0.01,-0.044 0.034,-0.105 0.09,-0.122 0.034,-0.009 0.549,-0.026 0.539,-0.552 -0.009,-0.526 -0.541,-0.536 -0.584,-0.549 -0.029,-0.009 -0.072,-0.056 -0.091,-0.119 0.002,-0.072 0.006,-0.143 0.011,-0.215 0.008,-0.009 0.018,-0.018 0.018,-0.027 0.014,-0.042 0.047,-0.099 0.105,-0.107 0.036,-0.004 0.547,0.056 0.616,-0.465 0.068,-0.522 -0.457,-0.611 -0.497,-0.631 -0.027,-0.014 -0.062,-0.067 -0.072,-0.133 l 0,-0.004 c 0.013,-0.068 0.028,-0.136 0.041,-0.204 0.012,-0.007 0.02,-0.016 0.024,-0.026 0.021,-0.038 0.06,-0.091 0.119,-0.088 0.037,0 0.533,0.135 0.679,-0.37 0.145,-0.505 -0.361,-0.673 -0.396,-0.696 -0.025,-0.02 -0.053,-0.077 -0.053,-0.142 l 0,-0.003 c 0.024,-0.068 0.049,-0.132 0.073,-0.198 0.011,-0.006 0.023,-0.012 0.025,-0.022 0.028,-0.035 0.076,-0.081 0.134,-0.07 0.035,0.006 0.507,0.215 0.725,-0.264 0.219,-0.478 -0.257,-0.719 -0.287,-0.748 -0.023,-0.022 -0.041,-0.082 -0.033,-0.145 0.035,-0.065 0.07,-0.128 0.105,-0.192 0.012,-0.003 0.022,-0.009 0.026,-0.017 0.033,-0.03 0.086,-0.067 0.142,-0.049 0.036,0.011 0.47,0.287 0.756,-0.153 0.289,-0.44 -0.145,-0.748 -0.172,-0.783 -0.019,-0.024 -0.026,-0.084 -0.009,-0.145 0.043,-0.06 0.089,-0.119 0.134,-0.176 0.012,-0.003 0.02,-0.005 0.026,-0.013 0.039,-0.026 0.096,-0.055 0.146,-0.028 0.034,0.016 0.422,0.353 0.772,-0.038 0.351,-0.393 -0.031,-0.763 -0.053,-0.8 -0.016,-0.027 -0.016,-0.088 0.012,-0.146 0.053,-0.052 0.105,-0.103 0.156,-0.154 0.014,0 0.025,-0.002 0.031,-0.009 0.039,-0.019 0.102,-0.038 0.149,-0.005 0.029,0.021 0.363,0.412 0.767,0.077 0.405,-0.336 0.082,-0.758 0.069,-0.799 -0.012,-0.029 -0.002,-0.091 0.035,-0.146 0.056,-0.043 0.117,-0.084 0.174,-0.126 0.013,0.003 0.025,0.003 0.031,-0.003 0.043,-0.013 0.107,-0.025 0.148,0.017 0.028,0.024 0.299,0.463 0.75,0.191 0.451,-0.272 0.194,-0.738 0.186,-0.78 -0.008,-0.032 0.012,-0.092 0.055,-0.14 0.003,-0.001 0.003,-0.001 0.003,-0.003 0.061,-0.032 0.124,-0.064 0.188,-0.095 0.012,0.004 0.023,0.007 0.035,10e-4 0.042,-0.007 0.108,-0.008 0.143,0.04 0.021,0.028 0.226,0.5 0.711,0.299 0.488,-0.201 0.302,-0.7 0.298,-0.743 -10e-4,-0.032 0.028,-0.088 0.079,-0.13 l 0.002,0 c 0.064,-0.025 0.133,-0.046 0.199,-0.068 0.013,0.005 0.023,0.009 0.033,0.005 0.047,0 0.111,0.009 0.137,0.061 0.017,0.032 0.15,0.529 0.661,0.403 0.51,-0.127 0.401,-0.648 0.405,-0.691 0.004,-0.033 0.039,-0.081 0.093,-0.116 0.071,-0.013 0.143,-0.025 0.216,-0.038 0.007,0.007 0.019,0.012 0.03,0.01 0.044,0.007 0.105,0.025 0.128,0.081 0.012,0.033 0.066,0.545 0.588,0.496 0.525,-0.05 0.496,-0.581 0.506,-0.622 0.007,-0.031 0.05,-0.075 0.109,-0.101 0.074,-0.002 0.146,-0.005 0.219,-0.005 0.01,0.008 0.019,0.013 0.027,0.013 0.045,0.014 0.104,0.041 0.115,0.1 0.006,0.034 -0.015,0.549 0.51,0.579 0.524,0.028 0.575,-0.501 0.592,-0.542 0.012,-0.029 0.06,-0.067 0.125,-0.084 l 0.004,0 c 0.07,0.009 0.14,0.018 0.207,0.026 0.01,0.011 0.017,0.02 0.029,0.021 0.04,0.019 0.094,0.056 0.098,0.114 10e-4,0.035 -0.098,0.542 0.418,0.649 0.514,0.107 0.644,-0.41 0.666,-0.447 0.017,-0.027 0.072,-0.057 0.136,-0.063 l 0.006,0 c 0.067,0.018 0.135,0.038 0.2,0.056 0.005,0.012 0.015,0.022 0.023,0.025 0.039,0.025 0.088,0.069 0.08,0.127 -0.004,0.036 -0.176,0.521 0.318,0.704 0.493,0.183 0.697,-0.309 0.725,-0.342 0.02,-0.025 0.078,-0.047 0.145,-0.043 0.066,0.03 0.13,0.059 0.196,0.089 0.005,0.011 0.011,0.022 0.018,0.026 0.034,0.03 0.075,0.081 0.061,0.138 -0.009,0.034 -0.25,0.489 0.208,0.744 0.462,0.253 0.737,-0.202 0.768,-0.232 0.023,-0.02 0.083,-0.032 0.145,-0.02 0.063,0.039 0.124,0.079 0.184,0.12 0.005,0.01 0.009,0.02 0.016,0.025 0.029,0.035 0.064,0.092 0.038,0.145 -0.013,0.034 -0.32,0.447 0.096,0.767 0.418,0.32 0.758,-0.09 0.793,-0.114 0.027,-0.017 0.088,-0.02 0.147,0 0.056,0.05 0.111,0.098 0.167,0.148 0,0.01 0.002,0.021 0.008,0.027 0.024,0.039 0.049,0.099 0.018,0.15 -0.019,0.03 -0.385,0.393 -0.019,0.771 0.365,0.379 0.762,0.023 0.802,0.006 0.029,-0.013 0.09,-0.008 0.147,0.023 0.046,0.056 0.093,0.112 0.138,0.168 0,0.011 0,0.023 0.008,0.03 0.016,0.042 0.031,0.105 -0.006,0.151 -0.023,0.028 -0.439,0.331 -0.135,0.76 0.305,0.429 0.75,0.136 0.791,0.125 0.032,-0.009 0.094,0.006 0.143,0.047 0,0.001 0.002,0.001 0.004,0.001 0.036,0.06 0.072,0.12 0.109,0.181 -0.004,0.012 -0.004,0.024 0.002,0.034 0.008,0.044 0.016,0.108 -0.029,0.147 C 3.892,-0.343 3.437,-0.104 3.673,0.366 3.909,0.835 4.395,0.614 4.437,0.608 4.47,0.604 4.528,0.627 4.571,0.675 4.573,0.677 4.575,0.677 4.575,0.677 4.601,0.742 4.629,0.806 4.657,0.872 4.651,0.885 4.647,0.896 4.653,0.905 c 0.004,0.045 0,0.11 -0.052,0.142 -0.03,0.019 -0.516,0.188 -0.352,0.687 0.164,0.5 0.678,0.352 0.72,0.353 0.032,0 0.087,0.033 0.123,0.085 0.018,0.071 0.036,0.14 0.054,0.21 C 5.139,2.393 5.134,2.404 5.138,2.413 5.134,2.458 5.12,2.522 5.067,2.546 5.034,2.561 4.528,2.655 4.616,3.173 c 0.088,0.518 0.617,0.449 0.658,0.456 0.03,0.005 0.077,0.043 0.108,0.1 0.004,0.04 0.01,0.08 0.014,0.12 C 5.397,3.882 5.401,3.915 5.403,3.948 5.396,3.958 5.392,3.968 5.392,3.976 5.384,4.021 5.36,4.082 5.304,4.099"
             inkscape:connector-curvature="0" />
        </g>
      </g>
    </g>
  </g>
</svg>
